<?xml version="1.0" encoding="utf-8"?>
<!-- Generator: Adobe Illustrator 26.3.1, SVG Export Plug-In . SVG Version: 6.00 Build 0)  -->
<svg version="1.1" id="Layer_1" xmlns="http://www.w3.org/2000/svg" xmlns:xlink="http://www.w3.org/1999/xlink" x="0px" y="0px"
	 viewBox="0 0 96 96" style="enable-background:new 0 0 96 96;" xml:space="preserve">
<style type="text/css">
	.st0{fill:#009933;}
</style>
<g>
	<path d="M54.3108444,51.8496323c-0.5305252,0.7732048-1.0265083,1.4579239-1.4805717,2.0346298
		c-0.4683762-3.6960487-0.6677971-7.614296-0.6004982-11.7541008c0.0696564-4.1398087,0.3650703-8.4327278,0.8887253-12.8763466
		c0.5236549-4.4424744,1.2850266-8.9954414,2.2866592-13.6588383c1.0016365-4.6640329,2.2026329-9.3647079,3.6005707-14.1062202
		c-0.7326202-0.2780482-1.4796181-0.4942018-2.2362175-0.6467435c-0.6893654-0.1104941-1.431591-0.2065483-2.2290306-0.2888622
		c-0.7998581-0.0804692-1.5901108-0.0155849-2.3683395,0.1963704c0.0624046,0.2221968-0.2906418,1.6171448-1.0544968,4.1842718
		c-0.7662048,2.5689077-1.8374939,5.8758426-3.2138672,9.924366c-1.378727,4.0479507-3.0390663,8.6519356-4.9798698,13.8089619
		c-1.9432182,5.1594448-4.0749855,10.443758-6.395298,15.8524342c-2.3214569,5.4122391-4.7667027,10.7506218-7.3356113,16.0182076
		c-2.5689068,5.2687263-5.1966553,10.0474586-7.8844547,14.3313408c-2.6866531,4.2863693-5.3684731,7.883316-8.0406237,10.7896805
		c-2.6746311,2.9087906-5.2615414,4.7018814-7.7644196,5.3828506c0.0744896,0.9343948,0.4347882,1.7630692,1.0784779,2.4848175
		c0.643754,0.7205963,1.4868679,1.298317,2.5316954,1.7294769c1.0436821,0.4335175,2.230237,0.6785507,3.5597286,0.7337646
		c1.3282824,0.0552216,2.7166147-0.111702,4.1626434-0.5055847c1.1697617-0.3171082,2.4451828-1.2766953,3.8311615-2.8787613
		c1.3871231-1.6009216,2.8403397-3.669014,4.3607941-6.2043381c1.5204544-2.5329056,3.0997505-5.4572754,4.7378883-8.7696152
		c1.6369286-3.3123398,3.2979031-6.8696518,4.9817104-10.6732101c1.6825409-3.8034859,3.3459282-7.7355385,4.9888992-11.7966576
		c1.64291-4.0611801,3.2258301-8.1205177,4.7511215-12.1792183c-0.0973282,1.4003525-0.1561699,2.7748833-0.1777954,4.124794
		c-0.0216293,1.3499107,0,2.6301651,0.0588379,3.8365669c0.0612602,1.2087555,0.1657753,2.2548561,0.3171082,3.1399536
		c0.1513329,0.8851624,0.3782997,1.5552521,0.6809654,2.0104561c0.535614,0.8707237,1.1487083,1.703022,1.8453217,2.4992561
		c0.5471916,0.6276588,1.1408195,1.1599007,1.7597008,1.6383896l1.8753433-2.8094902
		C52.0012169,55.6049042,53.155838,53.7438049,54.3108444,51.8496323z"/>
	<path class="st0" d="M79.7545166,46.0887451c0.1795044-1.7539062,0.374939-3.5165405,0.6050415-5.2984619
		C81.0256348,35.6525879,81.8276367,30.75,82.7633667,26.0795288c0.4145508-2.067749,0.8592529-4.0386963,1.3251953-5.9404907
		c0.144165-0.588562,0.2941895-1.1581421,0.4434814-1.7301636c0.1196289-0.4554443,0.239563-0.9060059,0.3605347-1.3452148
		c0.1619263-0.6051025,0.3302002-1.1854858,0.4951782-1.7785034c1.177002-4.2301025,2.4275513-8.1721802,3.763855-11.7872314
		L88.8282471,2.93573l-1.3897705-2.4159546c-0.6035156,0.0574951-1.2606812,0.0987549-1.9465332,0.1314697
		c-0.2015991,0.0095825-0.3938599,0.0220337-0.6027222,0.02948C84.2439575,0.6885986,83.494751,0.743042,82.6864014,0.822876
		c-0.1832275,0.0180664-0.3494263,0.0288086-0.5408936,0.050415c-1.0380859,0.1166382-2.102417,0.2720947-3.1907349,0.4644165
		c0.1201782,0.6863403-0.1707153,2.0369873-0.8751221,4.0558472c-0.7023926,2.019043-1.7300415,4.531189-3.088623,7.5296631
		c-1.3551025,3.0049438-2.9660645,6.3529053-4.8278198,10.0545654c-1.8635864,3.6994019-3.8927002,7.5751343-6.0897217,11.6207275
		c-2.1965942,4.0517578-4.5144653,8.1685791-6.9521484,12.3567505c-1.3283691,2.2813721-2.656311,4.5059204-3.9836426,6.6828613
		c-1.1082153,1.8174438-2.2160645,3.6031494-3.3234253,5.3468628l-1.7993774,2.6956787l-5.3444824,8.0065918
		c-3.2966309,4.5621948-6.3516846,8.3436279-9.1630249,11.3444214c-2.8119507,2.9966431-5.1472168,4.659729-7.0076904,4.9869995
		c0.510376,1.3913574,1.197937,2.4901733,2.0682373,3.3031616c0.7824707,0.6936646,1.8499146,1.1315308,3.2064209,1.3138428
		c1.3526611,0.1799316,3.1135864-0.3417969,5.2799072-1.5551147c0.9076538-0.4786377,1.9380493-1.3845215,3.0925293-2.7114258
		c1.1555176-1.3267822,2.4217529-2.9625244,3.7999878-4.9091187c1.3760376-1.9448242,2.8496704-4.1791382,4.4243774-6.7068481
		c1.5723267-2.5238037,3.1991577-5.2155762,4.8762207-8.0838623c2.8508301-1.0783081,5.6625366-2.201416,8.4333496-3.3612061
		c2.7720337-1.1617432,5.2576294-2.0635986,7.4580688-2.7075806c-0.1618652,4.7185059-0.1082153,9.1748047,0.1673584,13.3673096
		c0.2736816,4.1903076,0.9677734,7.8613281,2.0848999,11.007019c1.111145,3.1431274,2.7576904,5.635437,4.9300537,7.4698486
		c2.1746216,1.8325806,5.0424805,2.7302856,8.6029663,2.6787109c-2.0449829-5.9981689-3.4945068-11.9786377-4.3409424-17.9345703
		c-0.848877-5.9520874-1.2833252-11.8207397-1.3079834-17.6002808l0.1870117-9.0913086
		C79.5397949,48.9997559,79.6413574,47.5360107,79.7545166,46.0887451z M70.163208,42.7349243
		c-0.2171021,2.8995972-0.4332275,5.8115845-0.6448364,8.7404785c-1.5057983,0.456604-3.0824585,0.9890747-4.7260132,1.5997925
		c-1.6455688,0.6105347-3.2521973,1.3461304-5.0458374,2.0439453c1.899231-3.4819946,3.77948-6.9925537,5.6365967-10.5319824
		c0.3430786-0.6538696,0.6772461-1.2994385,1.017395-1.9505615c0.2471313-0.4372559,0.4919434-0.8629761,0.7394409-1.3018188
		c1.2310181-2.1853027,2.434082-4.3018188,3.6195679-6.3774414C70.5585327,37.5393066,70.3601074,40.1292114,70.163208,42.7349243z"
		/>
</g>
</svg>
