<?xml version="1.0" encoding="utf-8"?>
<svg version="1.1" id="Layer_1" xmlns="http://www.w3.org/2000/svg" xmlns:xlink="http://www.w3.org/1999/xlink" x="0px" y="0px"
	 viewBox="0 0 1202 366" style="enable-background:new 0 0 1202 366;" xml:space="preserve">
<style type="text/css">
	.st0{enable-background:new    ;}
	.st1{fill:#00CC44;}
</style>
<g class="st0">
	<path class="st1" d="M310.03125,51.4765625c0-1.7548828,0.9091797-2.0639648,2.7275391-0.9228516
		c1.8183594,1.1450195,3.7666016,2.8588867,5.8442383,5.1411133c2.078125,2.2861328,3.8964844,4.6137695,5.4550781,6.9863281
		s2.078125,4,1.5585938,4.8774414c-5.7148438,5.7998047-11.9487305,14.0634766-18.7026367,24.7822266
		c-6.753418,10.7226562-13.4663086,22.8500977-20.1308594,36.3823242
		c-6.668457,13.5361328-13.1176758,27.9047852-19.3515625,43.1049805
		c-6.234375,15.2050781-11.7338867,30.2324219-16.4946289,45.0820312
		c-4.7646484,14.8554688-8.5717773,29.046875-11.4291992,42.578125c-2.8569336,13.5332031-4.2856445,25.3105469-4.2856445,35.328125
		c-4.15625,0.3505859-7.7929688-0.8808594-10.909668-3.6914062c-2.7719727-2.4628906-5.284668-6.4589844-7.5332031-11.9951172
		c-2.2524414-5.5361328-3.3764648-14.0185547-3.3764648-25.4414062c0-5.9726562,1.3837891-13.7509766,4.1557617-23.3320312
		c2.7680664-9.5771484,6.4492188-20.1689453,11.0395508-31.7685547
		c4.5864258-11.5996094,9.9116211-23.6826172,15.9750977-36.2504883
		c6.0595703-12.5644531,12.3789062-24.7368164,18.9619141-36.5141602
		c-5.0244141,4.7451172-10.6943359,10.3271484-17.0136719,16.7412109
		c-6.3237305,6.4179688-12.8173828,13.0498047-19.4819336,19.9047852
		c-6.6679688,6.8544922-13.2919922,13.6225586-19.8710938,20.300293
		c-6.5830078,6.6816406-12.5576172,12.6542969-17.9228516,17.9277344
		c-5.3696289,5.2724609-10.0004883,9.5361328-13.8969727,12.7861328c-3.8964844,3.2548828-6.453125,4.8779297-7.6625977,4.8779297
		c-0.1748047,0-0.3046875-0.0410156-0.3896484-0.1328125c-0.0893555-0.0859375-0.2192383-0.1308594-0.3896484-0.1308594
		c-2.4272461,0-4.7651367-0.7011719-7.0136719-2.109375c-2.2524414-1.4042969-4.3305664-3.25-6.2338867-5.5371094
		c-1.9077148-2.28125-3.5512695-4.8769531-4.9355469-7.7773438c-1.3876953-2.8994141-2.512207-5.8408203-3.3764648-8.8320312
		c-0.5195312-1.5820312-0.6494141-3.7314453-0.3896484-6.4589844c0.2597656-2.7226562,0.7792969-5.8862305,1.5585938-9.4907227
		c0.7788086-3.6005859,1.7285156-7.3818359,2.8569336-11.3364258c1.1245117-3.9545898,2.378418-7.9506836,3.7666016-11.9956055
		c-7.6220703,10.7226562-15.4150391,21.3999023-23.3779297,32.0317383
		c-7.9672852,10.6367188-15.8896484,20.8730469-23.7675781,30.7148438c-7.8818359,9.8457031-15.5,18.9824219-22.8583984,27.4179688
		c-7.3623047,8.4375-14.2456055,15.7773438-20.6503906,22.0136719
		c-6.4086914,6.2373047-12.2529297,11.1601562-17.5336914,14.7646484
		c-5.2841797,3.6005859-9.7407227,5.4042969-13.3769531,5.4042969c-4.5053711,0-8.6611328-0.6181641-12.4682617-1.8447266
		c-3.8110352-1.2324219-7.0581055-2.9003906-9.7407227-5.0097656c-2.6870117-2.109375-4.6757812-4.4824219-5.9746094-7.1181641
		c-1.2988281-2.6367188-1.6884766-5.3642578-1.1689453-8.1728516c7.7929688,0,16.7094727-3.2050781,26.7548828-9.6230469
		c10.0410156-6.4140625,20.6503906-14.8496094,31.8198242-25.3095703
		c11.1694336-10.4550781,22.5541992-22.4091797,34.1577148-35.8544922
		c11.5996094-13.4462891,22.8989258-27.1967773,33.8979492-41.2602539
		c10.9951172-14.0595703,21.340332-27.9003906,31.0405273-41.5234375
		c9.6962891-13.6186523,18.1381836-25.8369141,25.3261719-36.6459961
		c7.184082-10.809082,12.8984375-19.6821289,17.144043-26.6274414c4.2412109-6.9414062,6.3637695-10.7641602,6.3637695-11.46875
		c2.4228516,0,4.7607422,0.440918,7.0131836,1.3183594c2.2485352,0.8813477,4.3266602,1.7587891,6.234375,2.6362305
		c2.078125,1.0546875,4.0668945,2.2866211,5.9741211,3.6914062c-7.7924805,12.831543-14.9804688,25.7045898-21.5595703,38.6230469
		c-6.5830078,12.918457-12.3828125,25.7050781-17.4033203,38.3598633
		c-5.0249023,12.6547852-9.2661133,25.0458984-12.7280273,37.1733398
		c-3.4663086,12.1274414-5.9746094,23.8183594-7.5327148,35.0634766
		c5.3652344-4.0410156,12.4677734-10.4545898,21.2998047-19.2451172c8.831543-8.7866211,18.3125-18.5415039,28.4428711-29.2641602
		c10.1303711-10.71875,20.4760742-21.7050781,31.0405273-32.9550781
		c10.5610352-11.2460938,20.171875-21.527832,28.8330078-30.8457031
		c8.6572266-9.3139648,15.8857422-16.9145508,21.6894531-22.8051758c5.7998047-5.8867188,9.1318359-8.8320312,10.0004883-8.8320312
		c-0.1743164,0.1772461-0.2597656,0.3544922-0.2597656,0.5273438c0,0.1772461-0.0444336,0.3544922-0.1298828,0.5273438
		c-0.0893555,0.1772461-0.1298828,0.440918-0.1298828,0.7910156L310.03125,51.4765625z"/>
	<path class="st1" d="M340.1621094,208.0791016c1.7290039,0,2.9873047,0.7900391,3.7666016,2.3720703
		s0.7348633,3.078125-0.1298828,4.4824219c-2.4272461,3.6914062-5.6738281,8.2636719-9.7407227,13.7089844
		c-4.0708008,5.4501953-8.4868164,10.7226562-13.2475586,15.8183594
		c-4.7646484,5.0996094-9.7001953,9.4501953-14.8061523,13.0507812c-5.1098633,3.6035156-10.0004883,5.4042969-14.6757812,5.4042969
		c-8.4868164,0-14.2011719-2.6367188-17.144043-7.9091797c-2.9423828-5.2724609-4.0668945-11.9501953-3.3764648-20.0361328
		c0.6938477-8.0820312,2.8164062-17.0058594,6.3637695-26.7597656c3.5473633-9.7548828,7.5732422-19.0683594,12.0786133-27.9462891
		c4.5009766-8.8730469,9.1318359-16.7412109,13.8969727-23.5957031c4.7607422-6.8544922,8.7016602-11.5092773,11.8188477-13.9726562
		c1.9033203-0.7006836,4.1557617-1.2280273,6.753418-1.5820312c2.5976562-0.3500977,5.0654297-0.2636719,7.402832,0.2636719
		c2.3378906,0.5273438,4.3266602,1.449707,5.9746094,2.7680664c1.6435547,1.3183594,2.4677734,3.1225586,2.4677734,5.4047852
		c0,0.7041016-1.3881836,3.3862305-4.15625,8.0410156c-2.7719727,4.6591797-6.0634766,10.2817383-9.8706055,16.8730469
		c-3.8110352,6.5908203-7.7924805,13.6230469-11.9487305,21.0917969c-4.15625,7.4716797-7.5327148,14.3671875-10.1303711,20.6953125
		c-2.5976562,6.3271484-4.0708008,11.5996094-4.4160156,15.8183594c-0.3491211,4.21875,1.2988281,6.3271484,4.9355469,6.3271484
		c3.6362305,0,7.2729492-1.1865234,10.909668-3.5595703c3.6362305-2.3720703,7.0537109-5.140625,10.2602539-8.3046875
		c3.2021484-3.1630859,6.0146484-6.3261719,8.4418945-9.4902344c2.4233398-3.1640625,4.15625-5.5371094,5.1953125-7.1191406
		C337.6499023,208.6972656,338.7744141,208.0791016,340.1621094,208.0791016z M339.6425781,102.0952148
		c3.6367188,0,6.96875,0.5727539,10.0009766,1.7138672c3.0273438,1.1450195,5.4101562,2.4633789,7.1430664,3.9545898
		c1.7290039,1.4951172,2.5976562,2.9907227,2.5976562,4.4819336c0,1.4951172-1.2138672,2.5952148-3.6367188,3.2954102
		c-2.4272461,0.5273438-4.375,1.7587891-5.8442383,3.690918c-1.4736328,1.9360352-2.8168945,3.9545898-4.0263672,6.0639648
		c-1.2133789,2.1088867-2.3378906,4-3.3769531,5.6679688c-1.0390625,1.6728516-2.3378906,2.5048828-3.8959961,2.5048828
		c-1.5585938,0-3.3364258-0.0415039-5.3251953-0.1318359c-1.9926758-0.0864258-3.8964844-0.4365234-5.7143555-1.0546875
		c-1.8183594-0.6137695-3.3364258-1.6230469-4.5458984-3.0317383c-1.2133789-1.4047852-1.8183594-3.3369141-1.8183594-5.800293
		c0-2.4589844,0.6494141-4.9638672,1.9482422-7.5136719c1.2988281-2.5458984,2.8574219-4.8320312,4.675293-6.8544922
		c1.8183594-2.0185547,3.7666016-3.6459961,5.8447266-4.8774414c2.078125-1.2275391,3.9814453-1.8457031,5.7143555-1.8457031
		L339.6425781,102.0952148z"/>
	<path class="st1" d="M387.4345703,198.3242188c1.3837891,2.2861328,2.7270508,4.5273438,4.0258789,6.7226562
		c1.2988281,2.1992188,2.4677734,4.5273438,3.5068359,6.9863281c1.3837891,3.1640625,2.4228516,6.5917969,3.1171875,10.2822266
		c0.6899414,3.6904297,0.949707,7.2958984,0.7792969,10.8095703c-0.1748047,3.3398438-0.7792969,6.5488281-1.8183594,9.6230469
		c-1.0390625,3.0761719-2.6870117,5.8447266-4.9355469,8.3046875c-2.5976562,2.9902344-5.7143555,5.1855469-9.3510742,6.5898438
		c-3.6367188,1.4101562-7.3623047,2.2871094-11.1694336,2.6367188c-7.6220703,0.8818359-14.9804688,0.0908203-22.0791016-2.3730469
		c-2.5976562-0.8769531-5.0654297-2.0625-7.402832-3.5585938c-2.3378906-1.4912109-4.3754883-3.3818359-6.1044922-5.6679688
		c-2.4228516-3.1640625-3.8964844-7.0273438-4.4160156-11.6005859c-0.6899414-4.5683594-0.5600586-9.3583984,0.3896484-14.3681641
		c0.9541016-5.0097656,2.7275391-9.359375,5.3251953-13.0507812c0.5195312-0.8769531,1.2539062-1.7998047,2.2080078-2.7675781
		c0.949707-0.9638672,1.9482422-1.2734375,2.9873047-0.9228516c1.2094727,0.3544922,1.9033203,1.4091797,2.0776367,3.1630859
		c0.1704102,1.7597656,0.2597656,3.078125,0.2597656,3.9550781c0,3.1640625,0.6049805,6.2412109,1.8183594,9.2275391
		c1.2094727,2.9912109,3.4619141,5.0087891,6.7539062,6.0634766c3.4619141,1.2324219,7.0537109,1.1455078,10.7797852-0.2636719
		c3.7216797-1.4042969,6.7939453-3.3359375,9.2211914-5.7998047c1.2094727-1.2275391,2.2080078-2.6357422,2.9873047-4.2177734
		c0.7788086-1.5820312,1.0795898-3.25,0.9086914-5.0097656c-0.1743164-1.4042969-0.6489258-2.7226562-1.4282227-3.9550781
		c-0.7792969-1.2265625-1.6035156-2.3720703-2.4677734-3.4267578c-1.9077148-1.9326172-3.8110352-3.7773438-5.7148438-5.5361328
		c-1.9072266-1.7548828-3.8110352-3.6005859-5.7143555-5.5371094c-5.0249023-5.6230469-8.0117188-12.1269531-8.9614258-19.5087891
		c-0.9541016-7.3823242,0.4746094-14.3232422,4.2856445-20.8276367c3.1171875-5.4458008,7.7036133-10.1049805,13.7670898-13.9731445
		c6.0595703-3.8637695,12.2084961-5.7998047,18.4423828-5.7998047c3.9819336,0,7.3139648,0.6586914,10.0004883,1.9770508
		c2.6831055,1.3183594,4.8056641,2.8999023,6.3642578,4.7456055c1.5585938,1.8452148,2.6381836,3.7363281,3.2470703,5.6679688
		c0.6044922,1.9365234,0.9091797,3.5180664,0.9091797,4.7456055c0,0.3544922-0.6088867,0.5727539-1.8183594,0.6591797
		c-1.2138672,0.0908203-2.5571289,0.1772461-4.0263672,0.2636719c-1.4731445,0.0908203-2.9018555,0.1318359-4.2861328,0.1318359
		c-1.3876953,0-2.1669922,0-2.3374023,0c-2.9467773,0.3544922-5.8891602,1.0131836-8.8320312,1.9775391
		c-2.9462891,0.9677734-5.1948242,2.7680664-6.753418,5.4042969c-1.5585938,2.6367188-2.6870117,5.4956055-3.3769531,8.5683594
		c-0.6938477,3.0771484-0.8681641,6.1088867-0.5195312,9.0957031c0.3452148,3.5180664,1.2988281,6.8999023,2.8574219,10.1499023
		c1.5585938,3.2539062,3.2875977,6.3730469,5.1953125,9.359375L387.4345703,198.3242188z"/>
	<path class="st1" d="M508.2163086,117.9140625c1.2094727-0.3505859,1.8183594,0.1767578,1.8183594,1.581543
		c-0.3491211,4.3955078-1.128418,7.5136719-2.3378906,9.359375c-1.2133789,1.8452148-2.1669922,2.9453125-2.8569336,3.2954102
		c-0.1748047,0.1772461-0.4345703,0.2636719-0.7792969,0.2636719c-5.5444336,0.1772461-11.3442383,0.2636719-17.4038086,0.2636719
		c-6.0634766,0-12.1230469,0-18.1826172,0c-4.3305664,7.7363281-8.7016602,15.7773438-13.1176758,24.1230469
		c-4.4160156,8.3500977-8.5717773,16.4365234-12.4682617,24.2548828c-3.8964844,7.8232422-7.402832,15.25-10.5200195,22.2783203
		c-3.1171875,7.03125-5.5439453,13.1816406-7.2729492,18.4541016c-1.7333984,5.2724609-2.5976562,9.4501953-2.5976562,12.5224609
		c0,3.078125,1.1240234,4.6142578,3.3764648,4.6142578c3.6367188,0,7.184082-1.1416016,10.6503906-3.4267578
		c3.4619141-2.2832031,6.6640625-5.0097656,9.6108398-8.1738281c2.9423828-3.1630859,5.5400391-6.3271484,7.7924805-9.4902344
		c2.2485352-3.1640625,3.8964844-5.6230469,4.9355469-7.3828125c0.8642578-1.4042969,2.0776367-2.1083984,3.6362305-2.1083984
		c1.7290039,0,2.9873047,0.7490234,3.7666016,2.2412109c0.7792969,1.4941406,0.734375,2.9453125-0.1298828,4.3496094
		c-2.2524414,3.6914062-5.2841797,8.3046875-9.0913086,13.8417969c-3.8110352,5.5351562-8.0527344,10.8535156-12.7280273,15.9492188
		c-4.6757812,5.0996094-9.5258789,9.4912109-14.5463867,13.1816406c-5.0244141,3.6914062-9.8706055,5.5371094-14.5463867,5.5371094
		c-6.4082031,0-10.7797852-1.8867188-13.1171875-5.6679688c-2.3378906-3.7773438-3.2026367-8.9189453-2.5976562-15.4238281
		c0.6088867-6.5,2.4267578-14.0585938,5.4545898-22.671875c3.0322266-8.6103516,6.7539062-17.796875,11.1694336-27.5507812
		c4.4160156-9.7548828,9.262207-19.7280273,14.5463867-29.9233398
		c5.2802734-10.1914062,10.4306641-20.2099609,15.4555664-30.0551758
		c-7.9672852-0.3500977-14.8955078-0.7456055-20.7802734-1.1865234c-5.8891602-0.4365234-9.9599609-1.0957031-12.2084961-1.9770508
		c-0.8686523-0.3500977-1.2988281-0.9638672-1.2988281-1.8457031L412.8867188,114.75
		c0-0.7001953,0.2597656-1.2275391,0.7792969-1.581543c0.5195312-0.3500977,1.0385742-0.3500977,1.5581055,0
		c2.9428711,1.2314453,7.8334961,2.2407227,14.6762695,3.0317383c6.8388672,0.7910156,14.4165039,1.3632812,22.7285156,1.7138672
		c5.8852539-11.6005859,10.8203125-21.9238281,14.8061523-30.9780273c3.9814453-9.050293,6.1445312-16.0366211,6.4936523-20.9594727
		c1.9038086-0.7001953,4.2412109-1.0546875,7.0136719-1.0546875c2.7680664,0,5.4545898,0.440918,8.0522461,1.3183594
		c2.5976562,0.8818359,4.8051758,2.1542969,6.6235352,3.8227539c1.8183594,1.6723633,2.7275391,3.6499023,2.7275391,5.9321289
		c0,0.3540039-0.6088867,1.6723633-1.8183594,3.9545898c-1.2133789,2.2861328-2.8569336,5.3178711-4.9350586,9.0957031
		c-2.078125,3.78125-4.5053711,8.1728516-7.2734375,13.1816406c-2.7719727,5.0092773-5.7143555,10.4140625-8.831543,16.2138672
		c7.4438477,0.1772461,14.0673828,0.1318359,19.8710938-0.1318359c5.7998047-0.2631836,9.9116211-0.6586914,12.3383789-1.1860352
		L508.2163086,117.9140625z"/>
	<path class="st1" d="M585.1000977,211.5058594c2.2485352,0.1777344,3.8959961,1.2324219,4.9350586,3.1640625
		c1.0390625,1.9355469,0.949707,3.8681641-0.2597656,5.8007812c-1.0385742,1.7578125-2.2524414,3.3398438-3.6362305,4.7441406
		c-1.3881836,1.4101562-2.8574219,2.8144531-4.4160156,4.21875c-5.0244141,4.5722656-10.4794922,8.5683594-16.3642578,11.9960938
		c-5.8891602,3.4277344-11.8637695,6.6367188-17.9233398,9.6230469c-2.7719727,1.4082031-5.4995117,2.7675781-8.1821289,4.0859375
		c-2.6870117,1.3183594-5.4145508,2.6816406-8.1821289,4.0859375
		c-5.5444336,13.3554688-11.3886719,26.2734375-17.5336914,38.7558594
		c-6.1489258,12.4775391-12.5576172,23.5507812-19.2216797,33.21875
		c-6.668457,9.6640625-13.6816406,17.4003906-21.0400391,23.2001953c-7.362793,5.7998047-15.0214844,8.7001953-22.9882812,8.7001953
		c-3.4624023,0-6.8837891-0.1777344-10.2602539-0.5273438c-3.3769531-0.3544922-6.6240234-1.1445312-9.7412109-2.3730469
		c-5.8847656-2.2861328-10.215332-6.1953125-12.9873047-11.7324219c-2.7680664-5.5351562-4.2416992-11.3808594-4.4160156-17.53125
		c-0.1704102-3.3408203,0.0444336-6.5917969,0.6494141-9.7548828c0.6088867-3.1630859,1.6030273-6.2412109,2.9873047-9.2275391
		c1.5585938-3.3408203,3.5512695-6.3271484,5.9741211-8.9638672c2.4272461-2.6357422,5.1098633-5.0996094,8.0522461-7.3818359
		c7.7929688-6.1542969,16.0644531-11.4277344,24.8066406-15.8183594c8.7426758-4.3955078,17.6186523-8.5273438,26.625-12.390625
		c4.3266602-1.9365234,8.6123047-3.7324219,12.8579102-5.4052734c4.2412109-1.6679688,8.5273438-3.3818359,12.8579102-5.140625
		l5.4545898-10.2822266c3.4619141-7.2050781,6.7944336-14.3681641,10.0004883-21.4863281
		c3.2026367-7.1191406,6.3642578-14.3691406,9.480957-21.75c1.7290039-4.0410156,3.4174805-8.1738281,5.0654297-12.3916016
		c1.6435547-4.2177734,3.3320312-8.4365234,5.0654297-12.6547852c-3.2919922,5.0996094-7.1879883,10.6772461-11.6889648,16.7416992
		c-4.5053711,6.0625-9.2216797,12.171875-14.1567383,18.3222656c-4.9355469,6.1542969-9.9599609,12.1269531-15.065918,17.9277344
		c-5.1098633,5.7998047-9.9599609,10.9863281-14.5463867,15.5546875c-4.590332,4.5722656-8.7910156,8.2636719-12.5976562,11.0722656
		c-3.8115234,2.8144531-6.8432617,4.3095703-9.0917969,4.4824219c-0.5195312,0.3544922-1.3876953,0.4863281-2.597168,0.3955078
		c-1.2138672-0.0869141-2.5976562-0.3046875-4.15625-0.6591797c-3.6367188-0.7001953-6.534668-2.5908203-8.7016602-5.6679688
		c-2.1635742-3.0732422-2.8129883-6.4589844-1.9482422-10.1503906c3.1171875-15.1132812,7.1879883-28.7773438,12.2084961-40.9960938
		c5.0205078-12.2138672,9.9111328-22.8461914,14.6762695-31.9003906c4.7607422-9.050293,8.8720703-16.5639648,12.3378906-22.5410156
		c3.4624023-5.9731445,5.1953125-10.2822266,5.1953125-12.918457c1.9033203-0.7006836,3.9814453-1.1865234,6.2338867-1.4501953
		c2.2485352-0.2636719,4.371582-0.0864258,6.3642578,0.5273438c1.9887695,0.6176758,3.6367188,1.6269531,4.9350586,3.0317383
		c1.2988281,1.4086914,1.9482422,3.2543945,1.9482422,5.5366211c0,0.5273438-0.7792969,2.331543-2.3378906,5.4042969
		c-1.5581055,3.0776367-3.5957031,7.0322266-6.1040039,11.8642578c-2.512207,4.8359375-5.3696289,10.3271484-8.5717773,16.4775391
		c-3.206543,6.1538086-6.3642578,12.6538086-9.480957,19.5092773c-3.1171875,6.8544922-6.0639648,13.7998047-8.8320312,20.828125
		c-2.7719727,7.03125-5.0244141,13.7988281-6.753418,20.2998047c6.9243164-2.8095703,14.0268555-7.6865234,21.2998047-14.6318359
		c7.2729492-6.9414062,14.6762695-15.0683594,22.2089844-24.3867188
		c7.5327148-9.3144531,15.065918-19.3325195,22.5986328-30.0551758c7.5327148-10.71875,15.0209961-21.2646484,22.46875-31.637207
		l0.7792969-0.7905273v-0.7910156v0.2636719c1.7290039-1.4047852,3.6367188-1.7548828,5.7148438-1.0546875l11.1694336,3.690918
		c1.9033203,0.7045898,3.1166992,1.9775391,3.6362305,3.8227539c0.5195312,1.8457031,0.2597656,3.559082-0.7792969,5.1411133
		c-3.1166992,4.5722656-6.3232422,10.2817383-9.6108398,17.1367188c-3.2915039,6.8544922-6.668457,14.4589844-10.1303711,22.8046875
		c-3.4658203,8.3496094-7.0581055,17.2685547-10.7797852,26.7597656
		c-3.7255859,9.4902344-7.5776367,19.0722656-11.559082,28.7363281c3.9814453-1.7539062,7.9633789-3.5585938,11.9487305-5.4042969
		c3.9814453-1.8457031,7.8779297-3.9091797,11.6889648-6.1953125c3.4619141-2.109375,7.0541992-4.6132812,10.7797852-7.5136719
		c3.7216797-2.9003906,6.2749023-6.3691406,7.6625977-10.4140625c0.8647461-2.8095703,2.7680664-4.0410156,5.7148438-3.6914062
		L585.1000977,211.5058594z M492.3676758,286.1171875c1.2094727-1.9375,2.3378906-3.9140625,3.3769531-5.9326172
		c1.0390625-2.0224609,2.078125-4,3.1166992-5.9326172c-3.9853516,1.9326172-7.9667969,3.8232422-11.9482422,5.6689453
		c-3.9858398,1.8457031-7.9672852,3.8232422-11.9487305,5.9326172c-4.5053711,2.4589844-9.0063477,5.0078125-13.5073242,7.6445312
		s-8.4829102,5.9736328-11.9487305,10.0185547c-1.5585938,1.9326172-2.8574219,3.9541016-3.8964844,6.0634766
		s-1.4692383,4.3916016-1.2988281,6.8554688c0,2.109375,0.6943359,4.0410156,2.078125,5.7998047
		c1.5585938,1.7548828,3.6367188,2.6357422,6.234375,2.6357422c2.4267578,0,4.675293-0.5273438,6.753418-1.5820312
		c3.6367188-1.5810547,6.8833008-3.8222656,9.7407227-6.7226562c2.8574219-2.8994141,5.5849609-5.8447266,8.1821289-8.8320312
		c2.9428711-3.3398438,5.5849609-6.8125,7.9228516-10.4130859c2.3374023-3.6044922,4.6308594-7.25,6.8833008-10.9414062
		L492.3676758,286.1171875z"/>
	<path class="st1" d="M811.3408203,178.8149414c5.5400391,2.2861328,9.6962891,5.2729492,12.4677734,8.9643555
		c2.7675781,3.6904297,4.15625,6.7675781,4.15625,9.2265625c0,1.7597656-0.4335938,3.4277344-1.2988281,5.0097656
		c-0.8691406,1.5820312-1.8183594,3.0761719-2.8574219,4.4814453c-1.2128906,1.5820312-2.5117188,2.9912109-3.8964844,4.2177734
		c-0.8681641-0.8769531-1.9072266-1.6679688-3.1171875-2.3720703c-2.078125-1.2275391-5.4541016-2.7236328-10.1298828-4.4814453
		c-2.5976562,15.8183594-4.15625,32.0771484-4.6757812,48.7734375c-0.5185547,16.6953125,0.5195312,33.7451172,3.1171875,51.1455078
		c-9.3505859-1.5810547-16.4541016-5.4042969-21.2998047-11.4677734
		c-4.8496094-6.0644531-8.0117188-13.6679688-9.4804688-22.8046875c-1.4736328-9.1376953-1.6035156-19.5097656-0.390625-31.1103516
		c1.2099609-11.6005859,3.1171875-23.8134766,5.7148438-36.6455078c-6.0634766,0.7041016-12.9873047,1.9765625-20.7802734,3.8222656
		c-7.7919922,1.8457031-15.6748047,3.5585938-23.6376953,5.140625
		c-5.7148438,7.0322266-11.2138672,13.6230469-16.4941406,19.7734375
		C713.453125,236.6425781,708.5625,242.046875,704.0625,246.7021484
		c-4.5058594,4.6591797-8.5722656,8.5273438-12.2089844,11.6005859c-3.6367188,3.0761719-6.7539062,5.0546875-9.3515625,5.9316406
		c-6.2333984,2.2822266-11.0839844,2.8544922-14.5458984,1.7128906c-3.4658203-1.1445312-6.0634766-2.8535156-7.7919922-5.140625
		c-1.9042969-2.6367188-3.203125-5.9726562-3.8964844-10.0175781c5.0195312,0,11.9042969-3.4277344,20.6503906-10.2822266
		c8.7421875-6.8544922,18.4824219-15.7275391,29.2226562-26.6279297c-3.1171875-0.1728516-5.9335938-0.6132812-8.4423828-1.3183594
		c-2.5126953-0.7001953-4.5458984-1.8457031-6.1044922-3.4277344c-2.9462891-2.9863281-4.9355469-5.8857422-5.9746094-8.6992188
		c-1.0390625-2.8095703-1.5585938-5.359375-1.5585938-7.6464844c0-2.4589844,0.4306641-4.8320312,1.2988281-7.1171875
		c3.6367188,3.6904297,9.4814453,5.4941406,17.5332031,5.4042969c8.0527344-0.0859375,17.0146484-1.0957031,26.8847656-3.0322266
		c8.1386719-9.3134766,16.3652344-19.1137695,24.6777344-29.3955078
		c8.3115234-10.2822266,16.2744141-20.4321289,23.8964844-30.4506836
		c7.6181641-10.0185547,14.7167969-19.6411133,21.3007812-28.8686523
		c6.578125-9.2275391,12.3378906-17.6186523,17.2734375-25.1777344c4.9355469-7.5546875,8.7871094-13.9277344,11.5585938-19.1137695
		c2.7675781-5.1821289,4.15625-8.7412109,4.15625-10.6777344c2.9423828,0,5.7998047,0.0908203,8.5722656,0.2636719
		c2.7675781,0.1772461,5.1953125,0.440918,7.2724609,0.7910156c2.4228516,0.3544922,4.6757812,0.6181641,6.7539062,0.7910156
		l3.1162109,8.9638672c-5.8886719,10.5454102-11.6875,22.2363281-17.4023438,35.0639648
		c-5.0253906,11.0732422-10.2207031,24.1230469-15.5859375,39.1508789
		c-5.3691406,15.0273438-10.0449219,31.5957031-14.0263672,49.6962891V178.8149414z M757.3115234,181.9785156
		c5.0205078-1.0546875,9.8261719-2.0185547,14.4169922-2.8999023c4.5859375-0.8774414,8.9609375-1.5820312,13.1171875-2.109375
		c1.9033203-7.9091797,3.8066406-15.7729492,5.7148438-23.5957031c1.9033203-7.8188477,3.8066406-15.5961914,5.7148438-23.3320312
		c-6.234375,8.6132812-12.5986328,17.3134766-19.0917969,26.1000977
		c-6.4941406,8.7910156-13.0332031,17.4912109-19.6123047,26.1005859L757.3115234,181.9785156z"/>
	<path class="st1" d="M939.9169922,208.0791016c2.2490234-2.109375,4.2861328-3.0322266,6.1044922-2.7685547
		s3.5058594,1.1865234,5.0644531,2.7685547c0.1708984,0-0.9082031,1.4091797-3.2460938,4.2177734
		c-2.3378906,2.8144531-5.6738281,6.328125-10.0009766,10.5458984c-4.3310547,4.2177734-9.4814453,8.7900391-15.4560547,13.7099609
		c-5.9736328,4.921875-12.5976562,9.4902344-19.8710938,13.7089844
		c-7.2724609,4.2177734-14.9355469,7.7363281-22.9882812,10.5449219c-8.0517578,2.8144531-16.3232422,4.21875-24.8066406,4.21875
		c-7.1015625,0-12.4677734-1.8457031-16.1035156-5.5371094c-3.6367188-3.6904297-5.9296875-8.5683594-6.8847656-14.6308594
		c-0.9492188-6.0644531-0.6035156-12.9189453,1.0390625-20.5644531c1.6484375-7.6464844,4.1972656-15.4648438,7.6640625-23.4648438
		c3.4609375-7.9951172,7.7480469-15.8183594,12.8574219-23.4633789c5.1054688-7.6455078,10.734375-14.4550781,16.8837891-20.4321289
		c6.1455078-5.9731445,12.7275391-10.809082,19.7412109-14.5c7.0136719-3.6914062,14.0673828-5.5366211,21.1699219-5.5366211
		c5.8847656,0,11.0390625,1.8041992,15.4550781,5.4047852c4.4160156,3.6044922,7.5742188,8.1313477,9.4814453,13.5771484
		c1.9033203,5.4501953,2.2490234,11.2954102,1.0390625,17.5322266c-1.2138672,6.2407227-4.4150391,11.9960938-9.6103516,17.2685547
		c-3.9863281,4.0449219-8.0117188,6.1083984-12.0791016,6.1953125c-4.0712891,0.0908203-7.5771484-0.6591797-10.5205078-2.2412109
		c-2.9462891-1.5820312-4.9794922-3.3359375-6.1035156-5.2724609c-1.1289062-1.9326172-0.7382812-2.8994141,1.1679688-2.8994141
		c1.9042969,0,3.9824219-1.1875,6.234375-3.5595703c2.2490234-2.3730469,4.0673828-5.0092773,5.4550781-7.9091797
		c1.3847656-2.9003906,1.9882812-5.5366211,1.8183594-7.9091797c-0.1738281-2.3730469-1.7324219-3.5595703-4.6757812-3.5595703
		c-4.8496094,0-9.7851562,1.8457031-14.8056641,5.5366211c-5.0244141,3.690918-9.6552734,8.2636719-13.8974609,13.7094727
		c-4.2441406,5.4492188-7.8369141,11.3818359-10.7792969,17.7949219c-2.9472656,6.4179688-4.8945312,12.3505859-5.84375,17.796875
		c-0.9550781,5.4492188-0.6953125,10.0175781,0.7792969,13.7089844c1.46875,3.6914062,4.6308594,5.5361328,9.4804688,5.5361328
		c10.5605469,0,19.9570312-1.5361328,28.1835938-4.6142578c8.2226562-3.0722656,15.1054688-6.4589844,20.6503906-10.1494141
		c6.578125-4.3916016,12.2929688-9.4003906,17.1435547-15.0273438L939.9169922,208.0791016z"/>
	<path class="st1" d="M1025.375,145.0688477c1.0390625,0,2.2929688,0.2636719,3.7675781,0.7910156
		c1.46875,0.5273438,2.8574219,1.2768555,4.15625,2.2407227c1.2988281,0.9682617,2.3769531,2.0678711,3.2460938,3.2954102
		c0.8652344,1.2319336,1.2988281,2.550293,1.2988281,3.9545898c0,1.9365234-1.3886719,4.9682617-4.15625,9.0957031
		c-2.7714844,4.1318359-5.7597656,9.1411133-8.9609375,15.027832c-3.2070312,5.8911133-6.1933594,12.5219727-8.9609375,19.9047852
		c-2.7734375,7.3818359-4.15625,15.2910156-4.15625,23.7275391c-0.8691406,0-2.296875-0.0869141-4.2871094-0.2636719
		c-1.9921875-0.1728516-4.0253906-0.6591797-6.1035156-1.4501953s-3.8964844-2.0634766-5.4550781-3.8222656
		c-1.5585938-1.7558594-2.3378906-4.1279297-2.3378906-7.1191406c0-2.9863281,1.4296875-7.9082031,4.2871094-14.7636719
		c2.8554688-6.8544922,6.1035156-13.9726562,9.7402344-21.3544922
		c-12.2988281,6.3271484-23.0332031,16.609375-32.2089844,30.8457031
		c-9.1816406,14.2373047-16.9746094,31.1103516-23.3789062,50.6191406v-0.7910156
		c-0.1738281,0.7041016-0.9980469,1.0126953-2.4677734,0.9228516c-1.4736328-0.0859375-3.1611328-0.3046875-5.0654297-0.6591797
		c-3.6367188-0.7001953-6.5341797-2.5908203-8.7011719-5.6689453c-2.1640625-3.0722656-2.8125-6.4589844-1.9482422-10.1494141
		c3.1162109-15.1142578,7.0126953-28.3828125,11.6884766-39.8095703
		c4.6757812-11.4238281,9.1767578-21.1777344,13.5078125-29.2641602c4.3261719-8.0825195,8.0078125-14.71875,11.0390625-19.9047852
		c3.0273438-5.1826172,4.546875-9.0957031,4.546875-11.7324219c1.9023438-0.7001953,3.9804688-1.1860352,6.2324219-1.449707
		c2.25-0.2636719,4.3710938-0.0864258,6.3652344,0.5273438c1.9882812,0.6176758,3.6367188,1.6269531,4.9355469,3.0317383
		c1.2988281,1.4086914,1.9472656,3.2543945,1.9472656,5.5366211c0,0.5268555-0.609375,1.9770508-1.8183594,4.3500977
		c-1.2128906,2.3725586-2.8574219,5.4951172-4.9355469,9.3588867c-2.078125,3.8681641-4.4160156,8.3046875-7.0136719,13.3139648
		s-5.1933594,10.3271484-7.7910156,15.9501953c5.3652344-5.7998047,10.5605469-11.3364258,15.5839844-16.609375
		c5.0214844-5.2729492,9.8261719-9.8862305,14.4160156-13.8408203c4.5878906-3.9545898,8.8730469-7.159668,12.859375-9.6230469
		c3.9804688-2.4594727,7.53125-3.8642578,10.6484375-4.2182617H1025.375z"/>
	<path class="st1" d="M1127.9746094,207.5517578c2.2490234-1.4052734,4.5869141-2.2412109,7.0136719-2.5048828
		c2.4228516-0.2636719,3.9814453,1.0996094,4.6757812,4.0859375c0.1699219-0.3496094-0.9091797,0.7910156-3.2470703,3.4277344
		s-5.6738281,5.9775391-10,10.0185547c-4.3310547,4.0458984-9.4814453,8.4365234-15.4560547,13.1826172
		c-5.9746094,4.7451172-12.5576172,9.1855469-19.7412109,13.3134766c-7.1875,4.1318359-14.8056641,7.5595703-22.8583984,10.2822266
		c-8.0527344,2.7265625-16.3242188,4.0859375-24.8066406,4.0859375c-9.3505859,0-15.8046875-3.1181641-19.3515625-9.359375
		c-3.546875-6.2363281-4.890625-14.0585938-4.0263672-23.4638672c0.8691406-9.4003906,3.6367188-19.5957031,8.3125-30.5820312
		c4.6757812-10.9824219,10.6054688-21.1777344,17.7929688-30.5825195
		c7.1835938-9.4003906,15.3251953-17.2231445,24.4169922-23.4638672c9.0917969-6.2368164,18.3974609-9.359375,27.9238281-9.359375
		c8.3115234,0,14.5009766,1.5405273,18.5722656,4.6137695c4.0664062,3.0771484,6.5341797,7.1181641,7.4033203,12.1274414
		c0.8642578,5.0092773,0.3447266,10.5454102-1.5585938,16.609375c-1.9082031,6.0634766-4.765625,12.0864258-8.5722656,18.059082
		c-3.8115234,5.9775391-8.3125,11.5595703-13.5068359,16.7412109c-5.1953125,5.1865234-10.6503906,9.359375-16.3652344,12.5234375
		c-5.7138672,3.1640625-11.3886719,4.9677734-17.0136719,5.4042969c-5.6289062,0.4414062-10.8691406-1.1865234-15.7148438-4.8769531
		c-0.8691406,5.2724609-0.4794922,9.6679688,1.1689453,13.1816406c1.6435547,3.5175781,4.8056641,5.2734375,9.4804688,5.2734375
		c10.5605469,0,19.9121094-1.4921875,28.0537109-4.4824219c8.1376953-2.9863281,14.9765625-6.2363281,20.5205078-9.7548828
		c6.5791016-4.2177734,12.2089844-8.9638672,16.8837891-14.2363281V207.5517578z M1095.765625,163.2597656
		c-3.6367188,0-7.2324219,0.9682617-10.7802734,2.9003906c-3.5507812,1.9360352-6.9726562,4.5268555-10.2597656,7.7773438
		c-3.2919922,3.2543945-6.4091797,6.9863281-9.3515625,11.2050781c-2.9462891,4.2177734-5.4550781,8.5273438-7.5322266,12.9179688
		c4.1552734,2.6367188,8.3115234,3.6044922,12.4677734,2.9003906c4.15625-0.7011719,8.0078125-2.328125,11.5585938-4.8779297
		c3.5478516-2.5458984,6.7539062-5.7089844,9.6113281-9.4912109c2.8574219-3.7768555,4.9755859-7.3813477,6.3642578-10.809082
		c1.3837891-3.4272461,1.9882812-6.3681641,1.8183594-8.831543c-0.1748047-2.4594727-1.3886719-3.6914062-3.6367188-3.6914062
		H1095.765625z"/>
	<path class="st1" d="M1179.4042969,198.3242188c1.3837891,2.2861328,2.7275391,4.5273438,4.0263672,6.7226562
		c1.2988281,2.1992188,2.4667969,4.5273438,3.5058594,6.9863281c1.3847656,3.1640625,2.4238281,6.5917969,3.1171875,10.2822266
		c0.6904297,3.6904297,0.9501953,7.2958984,0.7792969,10.8095703c-0.1738281,3.3398438-0.7792969,6.5488281-1.8183594,9.6230469
		c-1.0390625,3.0761719-2.6865234,5.8447266-4.9345703,8.3046875c-2.5976562,2.9902344-5.7148438,5.1855469-9.3515625,6.5898438
		c-3.6367188,1.4101562-7.3623047,2.2871094-11.1699219,2.6367188c-7.6220703,0.8818359-14.9804688,0.0908203-22.0791016-2.3730469
		c-2.5966797-0.8769531-5.0644531-2.0625-7.4023438-3.5585938c-2.3378906-1.4912109-4.375-3.3818359-6.1044922-5.6679688
		c-2.4228516-3.1640625-3.8964844-7.0273438-4.4160156-11.6005859c-0.6894531-4.5683594-0.5595703-9.3583984,0.3896484-14.3681641
		c0.9541016-5.0097656,2.7275391-9.359375,5.3251953-13.0507812c0.5195312-0.8769531,1.2539062-1.7998047,2.2080078-2.7675781
		c0.9492188-0.9638672,1.9482422-1.2734375,2.9873047-0.9228516c1.2089844,0.3544922,1.9033203,1.4091797,2.078125,3.1630859
		c0.1699219,1.7597656,0.2597656,3.078125,0.2597656,3.9550781c0,3.1640625,0.6044922,6.2412109,1.8183594,9.2275391
		c1.2089844,2.9912109,3.4619141,5.0087891,6.7529297,6.0634766c3.4619141,1.2324219,7.0546875,1.1455078,10.7802734-0.2636719
		c3.7216797-1.4042969,6.7939453-3.3359375,9.2207031-5.7998047c1.2099609-1.2275391,2.2080078-2.6357422,2.9873047-4.2177734
		s1.0800781-3.25,0.9091797-5.0097656c-0.1738281-1.4042969-0.6494141-2.7226562-1.4287109-3.9550781
		c-0.7792969-1.2265625-1.6025391-2.3720703-2.4677734-3.4267578c-1.9072266-1.9326172-3.8105469-3.7773438-5.7138672-5.5361328
		c-1.9082031-1.7548828-3.8115234-3.6005859-5.7148438-5.5371094c-5.0244141-5.6230469-8.0117188-12.1269531-8.9619141-19.5087891
		c-0.953125-7.3823242,0.4755859-14.3232422,4.2861328-20.8276367c3.1171875-5.4458008,7.703125-10.1049805,13.7666016-13.9731445
		c6.0605469-3.8637695,12.2089844-5.7998047,18.4433594-5.7998047c3.9814453,0,7.3134766,0.6586914,10,1.9770508
		c2.6826172,1.3183594,4.8056641,2.8999023,6.3642578,4.7456055c1.5585938,1.8452148,2.6376953,3.7363281,3.2470703,5.6679688
		c0.6044922,1.9365234,0.9091797,3.5180664,0.9091797,4.7456055c0,0.3544922-0.609375,0.5727539-1.8183594,0.6591797
		c-1.2138672,0.0908203-2.5566406,0.1772461-4.0263672,0.2636719c-1.4736328,0.0908203-2.9023438,0.1318359-4.2861328,0.1318359
		c-1.3876953,0-2.1669922,0-2.3378906,0c-2.9462891,0.3544922-5.8886719,1.0131836-8.8310547,1.9775391
		c-2.9472656,0.9677734-5.1953125,2.7680664-6.7539062,5.4042969c-1.5585938,2.6367188-2.6865234,5.4956055-3.3769531,8.5683594
		c-0.6943359,3.0771484-0.8681641,6.1088867-0.5195312,9.0957031c0.3447266,3.5180664,1.2988281,6.8999023,2.8574219,10.1499023
		c1.5585938,3.2539062,3.2871094,6.3730469,5.1953125,9.359375L1179.4042969,198.3242188z"/>
</g>
<g class="st0">
	<path d="M308.03125,45.4765625c0-1.7548828,0.9091797-2.0639648,2.7275391-0.9228516
		c1.8183594,1.1450195,3.7666016,2.8588867,5.8442383,5.1411133c2.078125,2.2861328,3.8964844,4.6137695,5.4550781,6.9863281
		s2.078125,4,1.5585938,4.8774414c-5.7148438,5.7998047-11.9487305,14.0634766-18.7026367,24.7822266
		c-6.753418,10.7226562-13.4663086,22.8500977-20.1308594,36.3823242
		c-6.668457,13.5361328-13.1176758,27.9047852-19.3515625,43.1049805
		c-6.234375,15.2050781-11.7338867,30.2324219-16.4946289,45.0820312
		c-4.7646484,14.8554688-8.5717773,29.046875-11.4291992,42.578125c-2.8569336,13.5332031-4.2856445,25.3105469-4.2856445,35.328125
		c-4.15625,0.3505859-7.7929688-0.8808594-10.909668-3.6914062c-2.7719727-2.4628906-5.284668-6.4589844-7.5332031-11.9951172
		c-2.2524414-5.5361328-3.3764648-14.0185547-3.3764648-25.4414062c0-5.9726562,1.3837891-13.7509766,4.1557617-23.3320312
		c2.7680664-9.5771484,6.4492188-20.1689453,11.0395508-31.7685547
		c4.5864258-11.6000977,9.9116211-23.6826172,15.9750977-36.2504883
		c6.0595703-12.5644531,12.3789062-24.7368164,18.9619141-36.5141602
		c-5.0244141,4.7451172-10.6943359,10.3271484-17.0136719,16.7412109
		c-6.3237305,6.4179688-12.8173828,13.0498047-19.4819336,19.9047852
		c-6.6679688,6.8544922-13.2919922,13.6225586-19.8710938,20.300293
		c-6.5830078,6.6816406-12.5576172,12.6542969-17.9228516,17.9277344
		c-5.3696289,5.2724609-10.0004883,9.5361328-13.8969727,12.7861328c-3.8964844,3.2548828-6.453125,4.8779297-7.6625977,4.8779297
		c-0.1748047,0-0.3046875-0.0410156-0.3896484-0.1328125c-0.0893555-0.0859375-0.2192383-0.1308594-0.3896484-0.1308594
		c-2.4272461,0-4.7651367-0.7011719-7.0136719-2.109375c-2.2524414-1.4042969-4.3305664-3.25-6.2338867-5.5371094
		c-1.9077148-2.28125-3.5512695-4.8769531-4.9355469-7.7773438c-1.3876953-2.8994141-2.512207-5.8408203-3.3764648-8.8320312
		c-0.5195312-1.5820312-0.6494141-3.7314453-0.3896484-6.4584961c0.2597656-2.7231445,0.7792969-5.8867188,1.5585938-9.4912109
		c0.7788086-3.6005859,1.7285156-7.3818359,2.8569336-11.3364258c1.1245117-3.9545898,2.378418-7.9506836,3.7666016-11.9956055
		c-7.6220703,10.7226562-15.4150391,21.3999023-23.3779297,32.0322266
		c-7.9672852,10.6362305-15.8896484,20.8725586-23.7675781,30.7143555c-7.8818359,9.8457031-15.5,18.9824219-22.8583984,27.4179688
		c-7.3623047,8.4375-14.2456055,15.7773438-20.6503906,22.0136719
		c-6.4086914,6.2373047-12.2529297,11.1601562-17.5336914,14.7646484
		c-5.2841797,3.6005859-9.7407227,5.4042969-13.3769531,5.4042969c-4.5053711,0-8.6611328-0.6181641-12.4682617-1.8447266
		c-3.8110352-1.2324219-7.0581055-2.9003906-9.7407227-5.0097656c-2.6870117-2.109375-4.6757812-4.4824219-5.9746094-7.1181641
		c-1.2988281-2.6367188-1.6884766-5.3642578-1.1689453-8.1728516c7.7929688,0,16.7094727-3.2050781,26.7548828-9.6230469
		c10.0410156-6.4140625,20.6503906-14.8496094,31.8198242-25.3095703
		c11.1694336-10.4550781,22.5541992-22.4091797,34.1577148-35.8544922
		c11.5996094-13.4462891,22.8989258-27.1967773,33.8979492-41.2602539
		c10.9951172-14.0595703,21.340332-27.9003906,31.0405273-41.5234375
		c9.6962891-13.6186523,18.1381836-25.8369141,25.3261719-36.6459961
		c7.184082-10.809082,12.8984375-19.6821289,17.144043-26.6274414c4.2412109-6.9414062,6.3637695-10.7641602,6.3637695-11.46875
		c2.4228516,0,4.7607422,0.440918,7.0131836,1.3183594c2.2485352,0.8813477,4.3266602,1.7587891,6.234375,2.6362305
		c2.078125,1.0546875,4.0668945,2.2866211,5.9741211,3.6914062c-7.7924805,12.831543-14.9804688,25.7045898-21.5595703,38.6230469
		c-6.5830078,12.918457-12.3828125,25.7050781-17.4033203,38.3598633
		c-5.0249023,12.6547852-9.2661133,25.0458984-12.7280273,37.1733398
		c-3.4663086,12.1274414-5.9746094,23.8183594-7.5327148,35.0634766
		c5.3652344-4.0405273,12.4677734-10.4545898,21.2998047-19.2451172c8.831543-8.7866211,18.3125-18.5415039,28.4428711-29.2641602
		c10.1303711-10.71875,20.4760742-21.7050781,31.0405273-32.9550781
		c10.5610352-11.2460938,20.171875-21.527832,28.8330078-30.8457031
		c8.6572266-9.3139648,15.8857422-16.9145508,21.6894531-22.8051758c5.7998047-5.8867188,9.1318359-8.8320312,10.0004883-8.8320312
		c-0.1743164,0.1772461-0.2597656,0.3544922-0.2597656,0.5273438c0,0.1772461-0.0444336,0.3544922-0.1298828,0.5273438
		c-0.0893555,0.1772461-0.1298828,0.440918-0.1298828,0.7910156L308.03125,45.4765625z"/>
	<path d="M338.1621094,202.0791016c1.7290039,0,2.9873047,0.7900391,3.7666016,2.3720703s0.7348633,3.078125-0.1298828,4.4824219
		c-2.4272461,3.6914062-5.6738281,8.2636719-9.7407227,13.7089844c-4.0708008,5.4501953-8.4868164,10.7226562-13.2475586,15.8183594
		c-4.7646484,5.0996094-9.7001953,9.4501953-14.8061523,13.0507812c-5.1098633,3.6035156-10.0004883,5.4042969-14.6757812,5.4042969
		c-8.4868164,0-14.2011719-2.6367188-17.144043-7.9091797c-2.9423828-5.2724609-4.0668945-11.9501953-3.3764648-20.0361328
		c0.6938477-8.0820312,2.8164062-17.0058594,6.3637695-26.7597656c3.5473633-9.7548828,7.5732422-19.0688477,12.0786133-27.9462891
		c4.5009766-8.8730469,9.1318359-16.7412109,13.8969727-23.5957031c4.7607422-6.8544922,8.7016602-11.5092773,11.8188477-13.9726562
		c1.9033203-0.7006836,4.1557617-1.2280273,6.753418-1.5820312c2.5976562-0.3500977,5.0654297-0.2636719,7.402832,0.2636719
		c2.3378906,0.5273438,4.3266602,1.449707,5.9746094,2.7680664c1.6435547,1.3183594,2.4677734,3.1225586,2.4677734,5.4047852
		c0,0.7041016-1.3881836,3.3862305-4.15625,8.0410156c-2.7719727,4.6591797-6.0634766,10.2817383-9.8706055,16.8730469
		c-3.8110352,6.5908203-7.7924805,13.6225586-11.9487305,21.0917969c-4.15625,7.4716797-7.5327148,14.3671875-10.1303711,20.6953125
		c-2.5976562,6.3271484-4.0708008,11.5996094-4.4160156,15.8183594c-0.3491211,4.21875,1.2988281,6.3271484,4.9355469,6.3271484
		c3.6362305,0,7.2729492-1.1865234,10.909668-3.5595703c3.6362305-2.3720703,7.0537109-5.140625,10.2602539-8.3046875
		c3.2021484-3.1630859,6.0146484-6.3261719,8.4418945-9.4902344c2.4233398-3.1640625,4.15625-5.5371094,5.1953125-7.1191406
		C335.6499023,202.6972656,336.7744141,202.0791016,338.1621094,202.0791016z M337.6425781,96.0952148
		c3.6367188,0,6.96875,0.5727539,10.0009766,1.7138672c3.0273438,1.1450195,5.4101562,2.4633789,7.1430664,3.9545898
		c1.7290039,1.4951172,2.5976562,2.9907227,2.5976562,4.4819336c0,1.4951172-1.2138672,2.5952148-3.6367188,3.2954102
		c-2.4272461,0.5273438-4.375,1.7587891-5.8442383,3.690918c-1.4736328,1.9360352-2.8168945,3.9545898-4.0263672,6.0639648
		c-1.2133789,2.1088867-2.3378906,4-3.3769531,5.6679688c-1.0390625,1.6728516-2.3378906,2.5048828-3.8959961,2.5048828
		c-1.5585938,0-3.3364258-0.0415039-5.3251953-0.1318359c-1.9926758-0.0864258-3.8964844-0.4365234-5.7143555-1.0546875
		c-1.8183594-0.6137695-3.3364258-1.6230469-4.5458984-3.0317383c-1.2133789-1.4047852-1.8183594-3.3369141-1.8183594-5.800293
		c0-2.4589844,0.6494141-4.9638672,1.9482422-7.5136719c1.2988281-2.5458984,2.8574219-4.8320312,4.675293-6.8544922
		c1.8183594-2.0185547,3.7666016-3.6459961,5.8447266-4.8774414c2.078125-1.2275391,3.9814453-1.8457031,5.7143555-1.8457031
		L337.6425781,96.0952148z"/>
	<path d="M385.4345703,192.3242188c1.3837891,2.2861328,2.7270508,4.5273438,4.0258789,6.7226562
		c1.2988281,2.1992188,2.4677734,4.5273438,3.5068359,6.9863281c1.3837891,3.1640625,2.4228516,6.5917969,3.1171875,10.2822266
		c0.6899414,3.6904297,0.949707,7.2958984,0.7792969,10.8095703c-0.1748047,3.3398438-0.7792969,6.5488281-1.8183594,9.6230469
		c-1.0390625,3.0761719-2.6870117,5.8447266-4.9355469,8.3046875c-2.5976562,2.9902344-5.7143555,5.1855469-9.3510742,6.5898438
		c-3.6367188,1.4101562-7.3623047,2.2871094-11.1694336,2.6367188c-7.6220703,0.8818359-14.9804688,0.0908203-22.0791016-2.3730469
		c-2.5976562-0.8769531-5.0654297-2.0625-7.402832-3.5585938c-2.3378906-1.4912109-4.3754883-3.3818359-6.1044922-5.6679688
		c-2.4228516-3.1640625-3.8964844-7.0273438-4.4160156-11.6005859c-0.6899414-4.5683594-0.5600586-9.3583984,0.3896484-14.3681641
		c0.9541016-5.0097656,2.7275391-9.359375,5.3251953-13.0507812c0.5195312-0.8769531,1.2539062-1.7998047,2.2080078-2.7675781
		c0.949707-0.9638672,1.9482422-1.2734375,2.9873047-0.9228516c1.2094727,0.3544922,1.9033203,1.4091797,2.0776367,3.1630859
		c0.1704102,1.7597656,0.2597656,3.078125,0.2597656,3.9550781c0,3.1640625,0.6049805,6.2412109,1.8183594,9.2275391
		c1.2094727,2.9912109,3.4619141,5.0087891,6.7539062,6.0634766c3.4619141,1.2324219,7.0537109,1.1455078,10.7797852-0.2636719
		c3.7216797-1.4042969,6.7939453-3.3359375,9.2211914-5.7998047c1.2094727-1.2275391,2.2080078-2.6357422,2.9873047-4.2177734
		c0.7788086-1.5820312,1.0795898-3.25,0.9086914-5.0097656c-0.1743164-1.4042969-0.6489258-2.7226562-1.4282227-3.9550781
		c-0.7792969-1.2265625-1.6035156-2.3720703-2.4677734-3.4267578c-1.9077148-1.9326172-3.8110352-3.7773438-5.7148438-5.5361328
		c-1.9072266-1.7548828-3.8110352-3.6005859-5.7143555-5.5371094c-5.0249023-5.6225586-8.0117188-12.1269531-8.9614258-19.5087891
		c-0.9541016-7.3823242,0.4746094-14.3232422,4.2856445-20.8276367c3.1171875-5.4458008,7.7036133-10.1049805,13.7670898-13.9731445
		c6.0595703-3.8637695,12.2084961-5.7998047,18.4423828-5.7998047c3.9819336,0,7.3139648,0.6586914,10.0004883,1.9770508
		c2.6831055,1.3183594,4.8056641,2.8999023,6.3642578,4.7456055c1.5585938,1.8452148,2.6381836,3.7363281,3.2470703,5.6679688
		c0.6044922,1.9365234,0.9091797,3.5180664,0.9091797,4.7456055c0,0.3544922-0.6088867,0.5727539-1.8183594,0.6591797
		c-1.2138672,0.0908203-2.5571289,0.1772461-4.0263672,0.2636719c-1.4731445,0.0908203-2.9018555,0.1318359-4.2861328,0.1318359
		c-1.3876953,0-2.1669922,0-2.3374023,0c-2.9467773,0.3544922-5.8891602,1.0131836-8.8320312,1.9775391
		c-2.9462891,0.9677734-5.1948242,2.7680664-6.753418,5.4042969c-1.5585938,2.6367188-2.6870117,5.4956055-3.3769531,8.5683594
		c-0.6938477,3.0771484-0.8681641,6.1088867-0.5195312,9.0957031c0.3452148,3.5180664,1.2988281,6.8999023,2.8574219,10.1499023
		c1.5585938,3.2539062,3.2875977,6.3730469,5.1953125,9.359375L385.4345703,192.3242188z"/>
	<path d="M506.2163086,111.9140625c1.2094727-0.3505859,1.8183594,0.1767578,1.8183594,1.581543
		c-0.3491211,4.3955078-1.128418,7.5136719-2.3378906,9.359375c-1.2133789,1.8452148-2.1669922,2.9453125-2.8569336,3.2954102
		c-0.1748047,0.1772461-0.4345703,0.2636719-0.7792969,0.2636719c-5.5444336,0.1772461-11.3442383,0.2636719-17.4038086,0.2636719
		c-6.0634766,0-12.1230469,0-18.1826172,0c-4.3305664,7.7363281-8.7016602,15.7773438-13.1176758,24.1230469
		c-4.4160156,8.3500977-8.5717773,16.4365234-12.4682617,24.2548828c-3.8964844,7.8227539-7.402832,15.25-10.5200195,22.2783203
		c-3.1171875,7.03125-5.5439453,13.1816406-7.2729492,18.4541016c-1.7333984,5.2724609-2.5976562,9.4501953-2.5976562,12.5224609
		c0,3.078125,1.1240234,4.6142578,3.3764648,4.6142578c3.6367188,0,7.184082-1.1416016,10.6503906-3.4267578
		c3.4619141-2.2832031,6.6640625-5.0097656,9.6108398-8.1738281c2.9423828-3.1630859,5.5400391-6.3271484,7.7924805-9.4902344
		c2.2485352-3.1640625,3.8964844-5.6230469,4.9355469-7.3828125c0.8642578-1.4042969,2.0776367-2.1083984,3.6362305-2.1083984
		c1.7290039,0,2.9873047,0.7490234,3.7666016,2.2412109c0.7792969,1.4941406,0.734375,2.9453125-0.1298828,4.3496094
		c-2.2524414,3.6914062-5.2841797,8.3046875-9.0913086,13.8417969c-3.8110352,5.5351562-8.0527344,10.8535156-12.7280273,15.9492188
		c-4.6757812,5.0996094-9.5258789,9.4912109-14.5463867,13.1816406c-5.0244141,3.6914062-9.8706055,5.5371094-14.5463867,5.5371094
		c-6.4082031,0-10.7797852-1.8867188-13.1171875-5.6679688c-2.3378906-3.7773438-3.2026367-8.9189453-2.5976562-15.4238281
		c0.6088867-6.5,2.4267578-14.0585938,5.4545898-22.671875c3.0322266-8.6103516,6.7539062-17.796875,11.1694336-27.5507812
		c4.4160156-9.7548828,9.262207-19.7280273,14.5463867-29.9233398
		c5.2802734-10.1914062,10.4306641-20.2099609,15.4555664-30.0551758
		c-7.9672852-0.3500977-14.8955078-0.7456055-20.7802734-1.1865234c-5.8891602-0.4365234-9.9599609-1.0957031-12.2084961-1.9770508
		c-0.8686523-0.3500977-1.2988281-0.9638672-1.2988281-1.8457031L410.8867188,108.75
		c0-0.7001953,0.2597656-1.2275391,0.7792969-1.581543c0.5195312-0.3500977,1.0385742-0.3500977,1.5581055,0
		c2.9428711,1.2314453,7.8334961,2.2407227,14.6762695,3.0317383c6.8388672,0.7910156,14.4165039,1.3632812,22.7285156,1.7138672
		c5.8852539-11.6005859,10.8203125-21.9238281,14.8061523-30.9780273c3.9814453-9.050293,6.1445312-16.0366211,6.4936523-20.9594727
		c1.9038086-0.7001953,4.2412109-1.0546875,7.0136719-1.0546875c2.7680664,0,5.4545898,0.440918,8.0522461,1.3183594
		c2.5976562,0.8818359,4.8051758,2.1542969,6.6235352,3.8227539c1.8183594,1.6723633,2.7275391,3.6499023,2.7275391,5.9321289
		c0,0.3540039-0.6088867,1.6723633-1.8183594,3.9545898c-1.2133789,2.2861328-2.8569336,5.3178711-4.9350586,9.0957031
		c-2.078125,3.78125-4.5053711,8.1728516-7.2734375,13.1816406c-2.7719727,5.0092773-5.7143555,10.4140625-8.831543,16.2138672
		c7.4438477,0.1772461,14.0673828,0.1318359,19.8710938-0.1318359c5.7998047-0.2631836,9.9116211-0.6586914,12.3383789-1.1860352
		L506.2163086,111.9140625z"/>
	<path d="M583.1000977,205.5058594c2.2485352,0.1777344,3.8959961,1.2324219,4.9350586,3.1640625
		c1.0390625,1.9355469,0.949707,3.8681641-0.2597656,5.8007812c-1.0385742,1.7578125-2.2524414,3.3398438-3.6362305,4.7441406
		c-1.3881836,1.4101562-2.8574219,2.8144531-4.4160156,4.21875c-5.0244141,4.5722656-10.4794922,8.5683594-16.3642578,11.9960938
		c-5.8891602,3.4277344-11.8637695,6.6367188-17.9233398,9.6230469c-2.7719727,1.4082031-5.4995117,2.7675781-8.1821289,4.0859375
		c-2.6870117,1.3183594-5.4145508,2.6816406-8.1821289,4.0859375
		c-5.5444336,13.3554688-11.3886719,26.2734375-17.5336914,38.7558594
		c-6.1489258,12.4775391-12.5576172,23.5507812-19.2216797,33.21875
		c-6.668457,9.6640625-13.6816406,17.4003906-21.0400391,23.2001953c-7.362793,5.7998047-15.0214844,8.7001953-22.9882812,8.7001953
		c-3.4624023,0-6.8837891-0.1777344-10.2602539-0.5273438c-3.3769531-0.3544922-6.6240234-1.1445312-9.7412109-2.3730469
		c-5.8847656-2.2861328-10.215332-6.1953125-12.9873047-11.7324219c-2.7680664-5.5351562-4.2416992-11.3808594-4.4160156-17.53125
		c-0.1704102-3.3408203,0.0444336-6.5917969,0.6494141-9.7548828c0.6088867-3.1630859,1.6030273-6.2412109,2.9873047-9.2275391
		c1.5585938-3.3408203,3.5512695-6.3271484,5.9741211-8.9638672c2.4272461-2.6357422,5.1098633-5.0996094,8.0522461-7.3818359
		c7.7929688-6.1542969,16.0644531-11.4277344,24.8066406-15.8183594c8.7426758-4.3955078,17.6186523-8.5273438,26.625-12.390625
		c4.3266602-1.9365234,8.6123047-3.7324219,12.8579102-5.4052734c4.2412109-1.6679688,8.5273438-3.3818359,12.8579102-5.140625
		l5.4545898-10.2822266c3.4619141-7.2050781,6.7944336-14.3681641,10.0004883-21.4863281
		c3.2026367-7.1191406,6.3642578-14.3691406,9.480957-21.75c1.7290039-4.0410156,3.4174805-8.1738281,5.0654297-12.3916016
		c1.6435547-4.2182617,3.3320312-8.4365234,5.0654297-12.6547852c-3.2919922,5.0996094-7.1879883,10.6772461-11.6889648,16.7416992
		c-4.5053711,6.0625-9.2216797,12.171875-14.1567383,18.3222656c-4.9355469,6.1542969-9.9599609,12.1269531-15.065918,17.9277344
		c-5.1098633,5.7998047-9.9599609,10.9863281-14.5463867,15.5546875c-4.590332,4.5722656-8.7910156,8.2636719-12.5976562,11.0722656
		c-3.8115234,2.8144531-6.8432617,4.3095703-9.0917969,4.4824219c-0.5195312,0.3544922-1.3876953,0.4863281-2.597168,0.3955078
		c-1.2138672-0.0869141-2.5976562-0.3046875-4.15625-0.6591797c-3.6367188-0.7001953-6.534668-2.5908203-8.7016602-5.6679688
		c-2.1635742-3.0732422-2.8129883-6.4589844-1.9482422-10.1503906c3.1171875-15.1132812,7.1879883-28.7773438,12.2084961-40.9960938
		c5.0205078-12.2138672,9.9111328-22.8461914,14.6762695-31.9003906c4.7607422-9.050293,8.8720703-16.5639648,12.3378906-22.5410156
		c3.4624023-5.9731445,5.1953125-10.2822266,5.1953125-12.918457c1.9033203-0.7006836,3.9814453-1.1865234,6.2338867-1.4501953
		c2.2485352-0.2636719,4.371582-0.0864258,6.3642578,0.5273438c1.9887695,0.6176758,3.6367188,1.6269531,4.9350586,3.0317383
		c1.2988281,1.4086914,1.9482422,3.2543945,1.9482422,5.5366211c0,0.5273438-0.7792969,2.331543-2.3378906,5.4042969
		c-1.5581055,3.0776367-3.5957031,7.0322266-6.1040039,11.8642578c-2.512207,4.8359375-5.3696289,10.3271484-8.5717773,16.4775391
		c-3.206543,6.1542969-6.3642578,12.6538086-9.480957,19.5092773c-3.1171875,6.8544922-6.0639648,13.7998047-8.8320312,20.828125
		c-2.7719727,7.03125-5.0244141,13.7988281-6.753418,20.2998047c6.9243164-2.8095703,14.0268555-7.6865234,21.2998047-14.6318359
		c7.2729492-6.9414062,14.6762695-15.0683594,22.2089844-24.3867188
		c7.5327148-9.3144531,15.065918-19.3325195,22.5986328-30.0551758c7.5327148-10.71875,15.0209961-21.2646484,22.46875-31.637207
		l0.7792969-0.7905273v-0.7910156v0.2636719c1.7290039-1.4047852,3.6367188-1.7548828,5.7148438-1.0546875l11.1694336,3.690918
		c1.9033203,0.7045898,3.1166992,1.9775391,3.6362305,3.8227539c0.5195312,1.8457031,0.2597656,3.559082-0.7792969,5.1411133
		c-3.1166992,4.5722656-6.3232422,10.2817383-9.6108398,17.1367188c-3.2915039,6.8544922-6.668457,14.4589844-10.1303711,22.8046875
		c-3.4658203,8.3496094-7.0581055,17.2685547-10.7797852,26.7597656
		c-3.7255859,9.4902344-7.5776367,19.0722656-11.559082,28.7363281c3.9814453-1.7539062,7.9633789-3.5585938,11.9487305-5.4042969
		c3.9814453-1.8457031,7.8779297-3.9091797,11.6889648-6.1953125c3.4619141-2.109375,7.0541992-4.6132812,10.7797852-7.5136719
		c3.7216797-2.9003906,6.2749023-6.3691406,7.6625977-10.4140625c0.8647461-2.8095703,2.7680664-4.0410156,5.7148438-3.6914062
		L583.1000977,205.5058594z M490.3676758,280.1171875c1.2094727-1.9375,2.3378906-3.9140625,3.3769531-5.9326172
		c1.0390625-2.0224609,2.078125-4,3.1166992-5.9326172c-3.9853516,1.9326172-7.9667969,3.8232422-11.9482422,5.6689453
		c-3.9858398,1.8457031-7.9672852,3.8232422-11.9487305,5.9326172c-4.5053711,2.4589844-9.0063477,5.0078125-13.5073242,7.6445312
		s-8.4829102,5.9736328-11.9487305,10.0185547c-1.5585938,1.9326172-2.8574219,3.9541016-3.8964844,6.0634766
		s-1.4692383,4.3916016-1.2988281,6.8554688c0,2.109375,0.6943359,4.0410156,2.078125,5.7998047
		c1.5585938,1.7548828,3.6367188,2.6357422,6.234375,2.6357422c2.4267578,0,4.675293-0.5273438,6.753418-1.5820312
		c3.6367188-1.5810547,6.8833008-3.8222656,9.7407227-6.7226562c2.8574219-2.8994141,5.5849609-5.8447266,8.1821289-8.8320312
		c2.9428711-3.3398438,5.5849609-6.8125,7.9228516-10.4130859c2.3374023-3.6044922,4.6308594-7.25,6.8833008-10.9414062
		L490.3676758,280.1171875z"/>
	<path d="M809.3408203,172.8149414c5.5400391,2.2861328,9.6962891,5.2724609,12.4677734,8.9638672
		c2.7675781,3.690918,4.15625,6.7680664,4.15625,9.2270508c0,1.7597656-0.4335938,3.4277344-1.2988281,5.0097656
		c-0.8691406,1.5820312-1.8183594,3.0761719-2.8574219,4.4814453c-1.2128906,1.5820312-2.5117188,2.9912109-3.8964844,4.2177734
		c-0.8681641-0.8769531-1.9072266-1.6679688-3.1171875-2.3720703c-2.078125-1.2275391-5.4541016-2.7236328-10.1298828-4.4814453
		c-2.5976562,15.8183594-4.15625,32.0771484-4.6757812,48.7734375c-0.5185547,16.6953125,0.5195312,33.7451172,3.1171875,51.1455078
		c-9.3505859-1.5810547-16.4541016-5.4042969-21.2998047-11.4677734
		c-4.8496094-6.0644531-8.0117188-13.6679688-9.4804688-22.8046875c-1.4736328-9.1376953-1.6035156-19.5097656-0.390625-31.1103516
		c1.2099609-11.6005859,3.1171875-23.8134766,5.7148438-36.6455078c-6.0634766,0.7041016-12.9873047,1.9765625-20.7802734,3.8222656
		c-7.7919922,1.8457031-15.6748047,3.5585938-23.6376953,5.140625
		c-5.7148438,7.0322266-11.2138672,13.6230469-16.4941406,19.7734375
		C711.453125,230.6425781,706.5625,236.046875,702.0625,240.7021484
		c-4.5058594,4.6591797-8.5722656,8.5273438-12.2089844,11.6005859c-3.6367188,3.0761719-6.7539062,5.0546875-9.3515625,5.9316406
		c-6.2333984,2.2822266-11.0839844,2.8544922-14.5458984,1.7128906c-3.4658203-1.1445312-6.0634766-2.8535156-7.7919922-5.140625
		c-1.9042969-2.6367188-3.203125-5.9726562-3.8964844-10.0175781c5.0195312,0,11.9042969-3.4277344,20.6503906-10.2822266
		c8.7421875-6.8544922,18.4824219-15.7275391,29.2226562-26.6279297c-3.1171875-0.1728516-5.9335938-0.6132812-8.4423828-1.3183594
		c-2.5126953-0.7001953-4.5458984-1.8457031-6.1044922-3.4277344c-2.9462891-2.9863281-4.9355469-5.8857422-5.9746094-8.6992188
		c-1.0390625-2.8095703-1.5585938-5.359375-1.5585938-7.6464844c0-2.4589844,0.4306641-4.831543,1.2988281-7.1176758
		c3.6367188,3.690918,9.4814453,5.4946289,17.5332031,5.4047852c8.0527344-0.0859375,17.0146484-1.0957031,26.8847656-3.0322266
		c8.1386719-9.3134766,16.3652344-19.1137695,24.6777344-29.3955078
		c8.3115234-10.2822266,16.2744141-20.4321289,23.8964844-30.4506836
		c7.6181641-10.0185547,14.7167969-19.6411133,21.3007812-28.8686523
		c6.578125-9.2275391,12.3378906-17.6186523,17.2734375-25.1777344c4.9355469-7.5546875,8.7871094-13.9277344,11.5585938-19.1137695
		c2.7675781-5.1821289,4.15625-8.7412109,4.15625-10.6777344c2.9423828,0,5.7998047,0.0908203,8.5722656,0.2636719
		c2.7675781,0.1772461,5.1953125,0.440918,7.2724609,0.7910156c2.4228516,0.3544922,4.6757812,0.6181641,6.7539062,0.7910156
		l3.1162109,8.9638672c-5.8886719,10.5454102-11.6875,22.2363281-17.4023438,35.0639648
		c-5.0253906,11.0732422-10.2207031,24.1230469-15.5859375,39.1508789
		c-5.3691406,15.0273438-10.0449219,31.5957031-14.0263672,49.6962891V172.8149414z M755.3115234,175.9785156
		c5.0205078-1.0546875,9.8261719-2.0185547,14.4169922-2.8999023c4.5859375-0.8774414,8.9609375-1.5820312,13.1171875-2.109375
		c1.9033203-7.9091797,3.8066406-15.7729492,5.7148438-23.5957031c1.9033203-7.8188477,3.8066406-15.5961914,5.7148438-23.3320312
		c-6.234375,8.6132812-12.5986328,17.3134766-19.0917969,26.1000977
		c-6.4941406,8.7910156-13.0332031,17.4912109-19.6123047,26.1005859L755.3115234,175.9785156z"/>
	<path d="M937.9169922,202.0791016c2.2490234-2.109375,4.2861328-3.0322266,6.1044922-2.7685547
		s3.5058594,1.1865234,5.0644531,2.7685547c0.1708984,0-0.9082031,1.4091797-3.2460938,4.2177734
		c-2.3378906,2.8144531-5.6738281,6.328125-10.0009766,10.5458984c-4.3310547,4.2177734-9.4814453,8.7900391-15.4560547,13.7099609
		c-5.9736328,4.921875-12.5976562,9.4902344-19.8710938,13.7089844
		c-7.2724609,4.2177734-14.9355469,7.7363281-22.9882812,10.5449219c-8.0517578,2.8144531-16.3232422,4.21875-24.8066406,4.21875
		c-7.1015625,0-12.4677734-1.8457031-16.1035156-5.5371094c-3.6367188-3.6904297-5.9296875-8.5683594-6.8847656-14.6308594
		c-0.9492188-6.0644531-0.6035156-12.9189453,1.0390625-20.5644531c1.6484375-7.6464844,4.1972656-15.4648438,7.6640625-23.4648438
		c3.4609375-7.9951172,7.7480469-15.8178711,12.8574219-23.4633789c5.1054688-7.6455078,10.734375-14.4550781,16.8837891-20.4321289
		c6.1455078-5.9731445,12.7275391-10.809082,19.7412109-14.5c7.0136719-3.6914062,14.0673828-5.5366211,21.1699219-5.5366211
		c5.8847656,0,11.0390625,1.8041992,15.4550781,5.4047852c4.4160156,3.6044922,7.5742188,8.1313477,9.4814453,13.5771484
		c1.9033203,5.4501953,2.2490234,11.2954102,1.0390625,17.5322266c-1.2138672,6.2407227-4.4150391,11.9956055-9.6103516,17.2685547
		c-3.9863281,4.0449219-8.0117188,6.1083984-12.0791016,6.1953125c-4.0712891,0.0908203-7.5771484-0.6591797-10.5205078-2.2412109
		c-2.9462891-1.5820312-4.9794922-3.3359375-6.1035156-5.2724609c-1.1289062-1.9321289-0.7382812-2.8999023,1.1679688-2.8999023
		c1.9042969,0,3.9824219-1.1865234,6.234375-3.559082c2.2490234-2.3730469,4.0673828-5.0092773,5.4550781-7.9091797
		c1.3847656-2.9003906,1.9882812-5.5366211,1.8183594-7.9091797c-0.1738281-2.3730469-1.7324219-3.5595703-4.6757812-3.5595703
		c-4.8496094,0-9.7851562,1.8457031-14.8056641,5.5366211c-5.0244141,3.690918-9.6552734,8.2636719-13.8974609,13.7094727
		c-4.2441406,5.449707-7.8369141,11.3818359-10.7792969,17.7949219c-2.9472656,6.4179688-4.8945312,12.3505859-5.84375,17.796875
		c-0.9550781,5.4492188-0.6953125,10.0175781,0.7792969,13.7089844c1.46875,3.6914062,4.6308594,5.5361328,9.4804688,5.5361328
		c10.5605469,0,19.9570312-1.5361328,28.1835938-4.6142578c8.2226562-3.0722656,15.1054688-6.4589844,20.6503906-10.1494141
		c6.578125-4.3916016,12.2929688-9.4003906,17.1435547-15.0273438L937.9169922,202.0791016z"/>
	<path d="M1023.375,139.0688477c1.0390625,0,2.2929688,0.2636719,3.7675781,0.7910156
		c1.46875,0.5273438,2.8574219,1.2768555,4.15625,2.2407227c1.2988281,0.9682617,2.3769531,2.0678711,3.2460938,3.2954102
		c0.8652344,1.2319336,1.2988281,2.550293,1.2988281,3.9545898c0,1.9365234-1.3886719,4.9682617-4.15625,9.0957031
		c-2.7714844,4.1318359-5.7597656,9.1411133-8.9609375,15.027832c-3.2070312,5.890625-6.1933594,12.5219727-8.9609375,19.9047852
		c-2.7734375,7.3818359-4.15625,15.2910156-4.15625,23.7275391c-0.8691406,0-2.296875-0.0869141-4.2871094-0.2636719
		c-1.9921875-0.1728516-4.0253906-0.6591797-6.1035156-1.4501953s-3.8964844-2.0634766-5.4550781-3.8222656
		c-1.5585938-1.7558594-2.3378906-4.1279297-2.3378906-7.1191406c0-2.9863281,1.4296875-7.9082031,4.2871094-14.7636719
		c2.8554688-6.8544922,6.1035156-13.9726562,9.7402344-21.3544922
		c-12.2988281,6.3271484-23.0332031,16.609375-32.2089844,30.8457031
		c-9.1816406,14.2373047-16.9746094,31.1103516-23.3789062,50.6191406v-0.7910156
		c-0.1738281,0.7041016-0.9980469,1.0126953-2.4677734,0.9228516c-1.4736328-0.0859375-3.1611328-0.3046875-5.0654297-0.6591797
		c-3.6367188-0.7001953-6.5341797-2.5908203-8.7011719-5.6689453c-2.1640625-3.0722656-2.8125-6.4589844-1.9482422-10.1494141
		c3.1162109-15.1142578,7.0126953-28.3828125,11.6884766-39.8095703
		c4.6757812-11.4233398,9.1767578-21.1777344,13.5078125-29.2641602c4.3261719-8.0825195,8.0078125-14.71875,11.0390625-19.9047852
		c3.0273438-5.1826172,4.546875-9.0957031,4.546875-11.7324219c1.9023438-0.7001953,3.9804688-1.1860352,6.2324219-1.449707
		c2.25-0.2636719,4.3710938-0.0864258,6.3652344,0.5273438c1.9882812,0.6176758,3.6367188,1.6269531,4.9355469,3.0317383
		c1.2988281,1.4086914,1.9472656,3.2543945,1.9472656,5.5366211c0,0.5268555-0.609375,1.9770508-1.8183594,4.3500977
		c-1.2128906,2.3725586-2.8574219,5.4951172-4.9355469,9.3588867c-2.078125,3.8681641-4.4160156,8.3046875-7.0136719,13.3139648
		s-5.1933594,10.3271484-7.7910156,15.9501953c5.3652344-5.7998047,10.5605469-11.3364258,15.5839844-16.609375
		c5.0214844-5.2729492,9.8261719-9.8862305,14.4160156-13.8408203c4.5878906-3.9545898,8.8730469-7.159668,12.859375-9.6230469
		c3.9804688-2.4594727,7.53125-3.8642578,10.6484375-4.2182617H1023.375z"/>
	<path d="M1125.9746094,201.5517578c2.2490234-1.4052734,4.5869141-2.2412109,7.0136719-2.5048828
		c2.4228516-0.2636719,3.9814453,1.0996094,4.6757812,4.0859375c0.1699219-0.3496094-0.9091797,0.7910156-3.2470703,3.4277344
		s-5.6738281,5.9775391-10,10.0185547c-4.3310547,4.0458984-9.4814453,8.4365234-15.4560547,13.1826172
		c-5.9746094,4.7451172-12.5576172,9.1855469-19.7412109,13.3134766c-7.1875,4.1318359-14.8056641,7.5595703-22.8583984,10.2822266
		c-8.0527344,2.7265625-16.3242188,4.0859375-24.8066406,4.0859375c-9.3505859,0-15.8046875-3.1181641-19.3515625-9.359375
		c-3.546875-6.2363281-4.890625-14.0585938-4.0263672-23.4638672c0.8691406-9.4003906,3.6367188-19.5957031,8.3125-30.5820312
		c4.6757812-10.9824219,10.6054688-21.1777344,17.7929688-30.5825195
		c7.1835938-9.4003906,15.3251953-17.2231445,24.4169922-23.4638672c9.0917969-6.2368164,18.3974609-9.359375,27.9238281-9.359375
		c8.3115234,0,14.5009766,1.5405273,18.5722656,4.6137695c4.0664062,3.0771484,6.5341797,7.1181641,7.4033203,12.1274414
		c0.8642578,5.0092773,0.3447266,10.5454102-1.5585938,16.609375c-1.9082031,6.0634766-4.765625,12.0864258-8.5722656,18.059082
		c-3.8115234,5.9775391-8.3125,11.5595703-13.5068359,16.7412109c-5.1953125,5.1865234-10.6503906,9.359375-16.3652344,12.5234375
		c-5.7138672,3.1640625-11.3886719,4.9677734-17.0136719,5.4042969c-5.6289062,0.4414062-10.8691406-1.1865234-15.7148438-4.8769531
		c-0.8691406,5.2724609-0.4794922,9.6679688,1.1689453,13.1816406c1.6435547,3.5175781,4.8056641,5.2734375,9.4804688,5.2734375
		c10.5605469,0,19.9121094-1.4921875,28.0537109-4.4824219c8.1376953-2.9863281,14.9765625-6.2363281,20.5205078-9.7548828
		c6.5791016-4.2177734,12.2089844-8.9638672,16.8837891-14.2363281V201.5517578z M1093.765625,157.2597656
		c-3.6367188,0-7.2324219,0.9682617-10.7802734,2.9003906c-3.5507812,1.9360352-6.9726562,4.5268555-10.2597656,7.7773438
		c-3.2919922,3.2543945-6.4091797,6.9863281-9.3515625,11.2045898c-2.9462891,4.2182617-5.4550781,8.527832-7.5322266,12.918457
		c4.1552734,2.6367188,8.3115234,3.6044922,12.4677734,2.9003906c4.15625-0.7011719,8.0078125-2.328125,11.5585938-4.8779297
		c3.5478516-2.5458984,6.7539062-5.7089844,9.6113281-9.4907227c2.8574219-3.7773438,4.9755859-7.3818359,6.3642578-10.8095703
		c1.3837891-3.4272461,1.9882812-6.3681641,1.8183594-8.831543c-0.1748047-2.4594727-1.3886719-3.6914062-3.6367188-3.6914062
		H1093.765625z"/>
	<path d="M1177.4042969,192.3242188c1.3837891,2.2861328,2.7275391,4.5273438,4.0263672,6.7226562
		c1.2988281,2.1992188,2.4667969,4.5273438,3.5058594,6.9863281c1.3847656,3.1640625,2.4238281,6.5917969,3.1171875,10.2822266
		c0.6904297,3.6904297,0.9501953,7.2958984,0.7792969,10.8095703c-0.1738281,3.3398438-0.7792969,6.5488281-1.8183594,9.6230469
		c-1.0390625,3.0761719-2.6865234,5.8447266-4.9345703,8.3046875c-2.5976562,2.9902344-5.7148438,5.1855469-9.3515625,6.5898438
		c-3.6367188,1.4101562-7.3623047,2.2871094-11.1699219,2.6367188c-7.6220703,0.8818359-14.9804688,0.0908203-22.0791016-2.3730469
		c-2.5966797-0.8769531-5.0644531-2.0625-7.4023438-3.5585938c-2.3378906-1.4912109-4.375-3.3818359-6.1044922-5.6679688
		c-2.4228516-3.1640625-3.8964844-7.0273438-4.4160156-11.6005859c-0.6894531-4.5683594-0.5595703-9.3583984,0.3896484-14.3681641
		c0.9541016-5.0097656,2.7275391-9.359375,5.3251953-13.0507812c0.5195312-0.8769531,1.2539062-1.7998047,2.2080078-2.7675781
		c0.9492188-0.9638672,1.9482422-1.2734375,2.9873047-0.9228516c1.2089844,0.3544922,1.9033203,1.4091797,2.078125,3.1630859
		c0.1699219,1.7597656,0.2597656,3.078125,0.2597656,3.9550781c0,3.1640625,0.6044922,6.2412109,1.8183594,9.2275391
		c1.2089844,2.9912109,3.4619141,5.0087891,6.7529297,6.0634766c3.4619141,1.2324219,7.0546875,1.1455078,10.7802734-0.2636719
		c3.7216797-1.4042969,6.7939453-3.3359375,9.2207031-5.7998047c1.2099609-1.2275391,2.2080078-2.6357422,2.9873047-4.2177734
		s1.0800781-3.25,0.9091797-5.0097656c-0.1738281-1.4042969-0.6494141-2.7226562-1.4287109-3.9550781
		c-0.7792969-1.2265625-1.6025391-2.3720703-2.4677734-3.4267578c-1.9072266-1.9326172-3.8105469-3.7773438-5.7138672-5.5361328
		c-1.9082031-1.7548828-3.8115234-3.6005859-5.7148438-5.5371094c-5.0244141-5.6225586-8.0117188-12.1269531-8.9619141-19.5087891
		c-0.953125-7.3823242,0.4755859-14.3232422,4.2861328-20.8276367c3.1171875-5.4458008,7.703125-10.1049805,13.7666016-13.9731445
		c6.0605469-3.8637695,12.2089844-5.7998047,18.4433594-5.7998047c3.9814453,0,7.3134766,0.6586914,10,1.9770508
		c2.6826172,1.3183594,4.8056641,2.8999023,6.3642578,4.7456055c1.5585938,1.8452148,2.6376953,3.7363281,3.2470703,5.6679688
		c0.6044922,1.9365234,0.9091797,3.5180664,0.9091797,4.7456055c0,0.3544922-0.609375,0.5727539-1.8183594,0.6591797
		c-1.2138672,0.0908203-2.5566406,0.1772461-4.0263672,0.2636719c-1.4736328,0.0908203-2.9023438,0.1318359-4.2861328,0.1318359
		c-1.3876953,0-2.1669922,0-2.3378906,0c-2.9462891,0.3544922-5.8886719,1.0131836-8.8310547,1.9775391
		c-2.9472656,0.9677734-5.1953125,2.7680664-6.7539062,5.4042969c-1.5585938,2.6367188-2.6865234,5.4956055-3.3769531,8.5683594
		c-0.6943359,3.0771484-0.8681641,6.1088867-0.5195312,9.0957031c0.3447266,3.5180664,1.2988281,6.8999023,2.8574219,10.1499023
		c1.5585938,3.2539062,3.2871094,6.3730469,5.1953125,9.359375L1177.4042969,192.3242188z"/>
</g>
</svg>
