<svg xmlns="http://www.w3.org/2000/svg" width="220" height="64" viewBox="0 0 59.459 17.297"><defs><filter id="a" width="1.005" height="1.019" x="0" y="0" color-interpolation-filters="sRGB"><feFlood flood-color="#0C4" result="flood"/><feGaussianBlur in="SourceGraphic" result="blur"/><feOffset dx=".3" dy=".3" in="blur" result="offset"/><feComposite in="flood" in2="offset" operator="in" result="comp1"/><feComposite in="SourceGraphic" in2="comp1" result="comp2"/></filter></defs><path d="M19.134 70.405q0-.127.127-.038.14.076.292.242t.267.342q.114.166.076.229-.42.42-.914 1.194t-.991 1.752q-.483.978-.94 2.083-.457 1.092-.813 2.172-.342 1.067-.558 2.045-.204.978-.204 1.701-.304.026-.533-.177-.203-.178-.368-.585-.165-.393-.165-1.219 0-.432.203-1.117.203-.699.533-1.537.343-.838.788-1.74.444-.914.927-1.765-.369.343-.838.813l-.953.952q-.483.495-.965.978t-.876.864-.686.622q-.28.228-.369.228h-.025q0-.012-.013-.012-.177 0-.343-.102t-.304-.267-.242-.368q-.101-.216-.165-.432-.038-.114-.025-.304.025-.204.076-.458.064-.266.14-.546.089-.292.19-.584-.559.775-1.143 1.55-.584.761-1.168 1.473-.572.71-1.118 1.32-.533.61-1.003 1.055-.47.457-.864.71-.38.267-.647.267-.33 0-.61-.088t-.483-.242q-.19-.152-.279-.343-.102-.19-.063-.393.571 0 1.308-.458.736-.47 1.549-1.219.826-.762 1.676-1.727.851-.978 1.651-1.994.813-1.016 1.524-1.994.712-.99 1.232-1.765.534-.787.839-1.283.317-.508.317-.559.178 0 .343.064t.305.127q.152.076.292.178-.572.927-1.054 1.867-.483.927-.851 1.841t-.622 1.79-.369 1.69q.394-.292 1.042-.927t1.384-1.41q.75-.775 1.524-1.587t1.41-1.486 1.054-1.092q.432-.432.495-.432-.013.012-.013.025t-.012.026v.038zm1.473 7.544q.127 0 .178.114.064.115 0 .216-.178.267-.483.66-.292.394-.647.763-.343.368-.724.635-.368.254-.711.254-.623 0-.839-.381t-.165-.965.305-1.283q.267-.711.597-1.346.33-.648.673-1.143.356-.496.584-.673.14-.051.33-.077t.356.013q.178.038.292.14.127.089.127.254 0 .05-.203.393-.203.33-.483.813-.279.47-.584 1.016-.305.534-.495.99t-.216.763.241.305.534-.165q.266-.178.495-.407.241-.228.42-.457t.253-.343q.064-.089.165-.089m-.025-5.105q.267 0 .482.089.229.076.356.19.127.102.127.216 0 .102-.178.152-.178.039-.292.178-.101.14-.19.292t-.165.28q-.077.114-.191.114t-.267 0q-.14-.013-.28-.05-.126-.052-.215-.153t-.089-.28.089-.355q.102-.19.229-.33.14-.153.292-.242t.28-.089zm2.337 4.635q.101.165.19.33.102.153.178.33.102.23.152.496t.038.52q-.012.242-.088.47-.077.216-.242.394-.19.216-.457.318t-.546.127q-.559.063-1.08-.115-.19-.063-.368-.165-.165-.114-.292-.28-.178-.228-.216-.558-.05-.33.026-.686.063-.368.254-.635.038-.063.101-.127.076-.076.153-.05.088.025.101.152t.013.19q0 .229.089.445t.33.292q.254.089.52-.013.28-.101.458-.28.089-.088.14-.202.063-.115.05-.242-.012-.101-.076-.19-.05-.089-.114-.165-.14-.14-.28-.267t-.279-.267q-.368-.406-.444-.94-.064-.533.215-1.003.229-.393.674-.673t.901-.28q.292 0 .483.102.203.09.317.229.115.127.153.267.05.14.05.228 0 .026-.088.038-.09 0-.204.013h-.317q-.216.026-.432.102-.216.063-.33.254t-.165.419q-.051.216-.026.432.026.254.14.495.114.229.254.444zm5.905-3.873q.089-.026.089.076-.025.317-.114.457-.09.127-.14.153-.013.012-.038.012-.406.013-.851.013t-.889 0q-.317.559-.648 1.168-.317.597-.61 1.169-.279.559-.507 1.067t-.356.889-.127.61q0 .215.165.215.267 0 .52-.165t.47-.394.382-.457.241-.356q.064-.101.178-.101.127 0 .178.114.063.102 0 .203-.165.267-.445.673-.28.394-.622.762t-.711.635-.711.267q-.47 0-.635-.267-.178-.279-.127-.749.038-.47.266-1.092.216-.622.534-1.32.33-.712.71-1.449.395-.736.763-1.447-.584-.026-1.016-.051-.432-.038-.597-.102-.064-.025-.064-.089l.051-.597q0-.05.038-.076t.077 0q.215.089.71.153.509.05 1.118.076.432-.838.724-1.486.292-.66.318-1.016.14-.051.343-.051t.393.064.318.19q.14.114.14.28 0 .025-.09.19t-.24.444q-.153.267-.356.635-.203.356-.432.775.546.013.965 0 .432-.025.61-.063zm3.76 4.508q.164.013.24.153t-.012.279q-.076.127-.178.229t-.216.203q-.368.33-.8.584-.432.241-.876.457l-.407.203q-.19.09-.393.19-.407.966-.864 1.868-.444.902-.94 1.6-.482.699-1.028 1.118-.534.419-1.118.419-.254 0-.495-.026-.254-.025-.483-.114-.432-.165-.635-.571-.203-.394-.216-.839-.013-.241.038-.47.038-.228.14-.444.114-.241.292-.432t.394-.355q.571-.445 1.219-.762.635-.318 1.295-.597.318-.14.623-.254l.635-.254.266-.496q.254-.52.483-1.028.241-.521.47-1.054.127-.293.241-.597l.254-.61q-.241.368-.571.813-.33.432-.699.876-.355.445-.736.864-.369.419-.712.749-.33.33-.61.533t-.444.216q-.038.026-.127.026-.089-.013-.203-.038-.267-.051-.419-.267-.165-.229-.102-.495.229-1.093.597-1.969.369-.889.711-1.537.356-.66.61-1.092t.254-.622q.14-.05.305-.064.165-.025.305.026.152.038.241.14.102.101.102.266 0 .038-.115.267-.114.216-.305.571-.177.343-.419.788-.228.444-.457.94t-.432 1.003-.33.978q.508-.203 1.042-.699.533-.508 1.08-1.18.558-.674 1.104-1.449.559-.774 1.105-1.524l.038-.038v-.038.013q.127-.102.28-.05l.545.177q.14.05.178.19.038.127-.038.242-.228.33-.47.825t-.495 1.105q-.254.597-.533 1.283-.267.686-.56 1.384l.585-.254q.292-.14.571-.305.254-.152.521-.355.28-.216.381-.508.064-.203.28-.178zm-4.535 3.594q.09-.14.165-.292l.153-.28q-.292.14-.584.268-.292.14-.585.292-.33.177-.66.368t-.584.483q-.114.14-.19.292t-.064.33q0 .152.101.28.115.126.305.126.178 0 .33-.076.267-.114.47-.33.216-.203.407-.42.216-.24.38-.507.179-.254.344-.521zm15.596-5.169q.406.166.61.432t.203.445q0 .127-.064.241t-.14.216q-.088.114-.19.203-.063-.063-.152-.114-.153-.09-.496-.216-.19 1.143-.228 2.35t.152 2.463q-.686-.114-1.041-.559-.356-.431-.47-1.092-.102-.66-.013-1.498t.28-1.766q-.445.051-1.016.19-.572.128-1.156.242-.42.508-.813.953-.38.444-.711.787-.33.33-.597.559-.267.216-.457.28-.457.164-.711.075-.254-.076-.381-.24-.14-.191-.19-.483.367 0 1.002-.496.648-.495 1.435-1.282-.228-.013-.419-.064-.177-.05-.292-.165-.216-.216-.292-.42t-.076-.367q0-.178.063-.343.267.266.851.266.597-.012 1.321-.152.597-.673 1.207-1.41.61-.75 1.168-1.473t1.041-1.384q.483-.673.839-1.22.368-.546.571-.914.203-.38.203-.52.216 0 .42.012t.355.038q.178.026.33.038l.153.432q-.432.762-.851 1.69-.369.8-.762 1.892-.394 1.079-.686 2.387zm-2.642.153q.369-.076.699-.14.343-.063.648-.101.14-.572.279-1.13.14-.572.28-1.131-.458.622-.94 1.257-.47.635-.953 1.258zm8.929 1.257q.165-.152.292-.127.14.013.254.127.012 0-.165.203-.166.204-.483.508t-.762.66q-.432.356-.965.661t-1.13.508q-.585.203-1.207.203-.52 0-.787-.266t-.33-.699q-.077-.444.05-.99.114-.56.368-1.13.254-.585.623-1.131.38-.559.825-.99.457-.432.965-.7.521-.266 1.042-.266.432 0 .75.267.33.254.469.648t.05.85q-.088.445-.47.826-.291.292-.596.305-.292 0-.508-.115t-.305-.254q-.076-.14.064-.14t.305-.164q.165-.178.266-.381.102-.216.09-.381-.014-.178-.23-.178-.355 0-.723.267t-.686.66q-.305.394-.52.864-.217.457-.293.85-.063.394.038.66.114.268.47.268.775 0 1.372-.216.61-.229 1.016-.496.482-.317.838-.724zm4.178-3.035q.076 0 .178.038.114.038.203.114.101.064.165.153t.063.19q0 .14-.203.445-.203.292-.444.724-.229.419-.432.952t-.203 1.143q-.064 0-.216-.013-.14-.012-.292-.063-.153-.064-.267-.19t-.114-.344.203-.71q.216-.496.483-1.03-.902.458-1.575 1.486t-1.143 2.439v-.038q-.013.05-.127.05-.102-.012-.242-.038-.266-.05-.419-.266-.165-.229-.101-.496.228-1.092.571-1.917t.66-1.41.534-.952q.229-.381.229-.572.14-.05.304-.063.166-.026.305.025.153.038.242.14.101.101.101.266 0 .038-.089.216l-.241.445q-.152.28-.343.647-.19.356-.381.762.394-.419.762-.8t.699-.66q.342-.292.635-.47t.52-.203zm5.016 3.01q.165-.102.343-.115.178-.025.229.19.013-.024-.165.166-.165.19-.483.483t-.762.635q-.432.343-.965.647-.52.292-1.118.496-.584.19-1.206.19-.686 0-.94-.444-.267-.458-.203-1.13.063-.686.406-1.474.343-.8.864-1.473.533-.686 1.194-1.13.673-.458 1.371-.458.61 0 .902.229.305.216.368.584.064.356-.076.8-.14.432-.42.864t-.66.813q-.38.368-.8.597t-.838.266q-.406.026-.762-.241-.063.381.051.635.127.254.47.254.775 0 1.372-.216t1.003-.47q.482-.305.825-.686zm-1.574-2.134q-.267 0-.534.14-.254.14-.495.38-.241.23-.457.534t-.369.623q.305.19.61.14t.559-.23q.266-.19.47-.457.216-.279.317-.52.102-.254.089-.432t-.178-.178zm4.089 1.69q.102.164.19.33.102.152.178.33.102.228.153.495t.038.52q-.013.242-.09.47-.075.216-.24.394-.191.216-.458.318t-.546.127q-.559.063-1.08-.115-.19-.063-.368-.165-.165-.114-.292-.28-.177-.228-.216-.558-.05-.33.026-.686.063-.368.254-.635.038-.063.101-.127.077-.076.153-.05.089.025.101.152t.013.19q0 .229.089.445t.33.292q.254.089.52-.013.28-.101.458-.28.089-.088.14-.202.063-.115.05-.242-.012-.101-.076-.19-.05-.089-.114-.165-.14-.14-.28-.267t-.279-.267q-.368-.406-.444-.94-.064-.533.216-1.003.228-.393.673-.673t.902-.28q.292 0 .482.102.203.09.318.229.114.127.152.267.05.14.05.228 0 .026-.088.038-.089 0-.203.013h-.318q-.216.026-.432.102-.215.063-.33.254t-.165.419q-.05.216-.025.432.025.254.14.495.114.229.253.444z" aria-label="Misty Acres" filter="url(#a)" transform="matrix(1.00286 0 0 .99715 -3.926 -68.83)"/></svg>