<?xml version="1.0" encoding="UTF-8"?>
<svg width="220" height="64" version="1.1" viewBox="0 0 59.45946 17.2973" xmlns="http://www.w3.org/2000/svg">
 <defs>
  <filter id="filter" x="0" y="0" width="1.005113" height="1.019065" color-interpolation-filters="sRGB">
   <feFlood flood-color="rgb(0,204,68)" in="SourceGraphic" result="flood"/>
   <feGaussianBlur in="SourceGraphic" result="blur" stdDeviation="0.000000"/>
   <feOffset dx="0.300000" dy="0.300000" in="blur" result="offset"/>
   <feComposite in="flood" in2="offset" operator="in" result="comp1"/>
   <feComposite in="SourceGraphic" in2="comp1" result="comp2"/>
  </filter>
 </defs>
 <path transform="matrix(1.002856 0 0 .9971516 -3.926101 -68.82912)" d="m19.13402 70.40533q0-0.127 0.127-0.0381 0.1397 0.0762 0.2921 0.2413t0.2667 0.3429q0.1143 0.1651 0.0762 0.2286-0.4191 0.4191-0.9144 1.1938t-0.9906 1.7526q-0.4826 0.9779-0.9398 2.0828-0.4572 1.0922-0.8128 2.1717-0.3429 1.0668-0.5588 2.0447-0.2032 0.9779-0.2032 1.7018-0.3048 0.0254-0.5334-0.1778-0.2032-0.1778-0.3683-0.5842-0.1651-0.3937-0.1651-1.2192 0-0.4318 0.2032-1.1176 0.2032-0.6985 0.5334-1.5367 0.3429-0.8382 0.7874-1.7399 0.4445-0.9144 0.9271-1.7653-0.3683 0.3429-0.8382 0.8128-0.4572 0.4572-0.9525 0.9525-0.4826 0.4953-0.9652 0.9779t-0.8763 0.8636-0.6858 0.6223q-0.2794 0.2286-0.3683 0.2286-0.0127 0-0.0254 0 0-0.0127-0.0127-0.0127-0.1778 0-0.3429-0.1016t-0.3048-0.2667-0.2413-0.3683q-0.1016-0.2159-0.1651-0.4318-0.0381-0.1143-0.0254-0.3048 0.0254-0.2032 0.0762-0.4572 0.0635-0.2667 0.1397-0.5461 0.0889-0.2921 0.1905-0.5842-0.5588 0.7747-1.143 1.5494-0.5842001 0.762-1.1684 1.4732-0.5715 0.7112-1.1176 1.3208-0.5334 0.6096-1.0033 1.0541-0.4699 0.4572-0.8636 0.7112-0.381 0.2667-0.6477 0.2667-0.3302 0-0.6096-0.0889t-0.4826-0.2413q-0.1905-0.1524-0.2794-0.3429-0.1016-0.1905-0.0635-0.3937 0.5715 0 1.3081-0.4572 0.7366-0.4699 1.5494-1.2192 0.8255-0.762 1.6764-1.7272 0.8509-0.9779 1.651-1.9939 0.8128-1.016 1.524-1.9939 0.7112-0.9906 1.2319-1.7653 0.5334-0.7874 0.8382-1.2827 0.3175-0.508 0.3175-0.5588 0.1778 0 0.3429 0.0635t0.3048 0.127q0.1524 0.0762 0.2921 0.1778-0.5715 0.9271-1.0541 1.8669-0.4826 0.9271-0.8509 1.8415t-0.6223 1.7907-0.3683 1.6891q0.3937-0.2921 1.0414-0.9271t1.3843-1.4097q0.7493-0.7747 1.524-1.5875t1.4097-1.4859 1.0541-1.0922q0.4318-0.4318 0.4953-0.4318-0.0127 0.0127-0.0127 0.0254t-0.0127 0.0254q0 0.0127 0 0.0381zm1.473201 7.5438q0.127 0 0.1778 0.1143 0.0635 0.1143 0 0.2159-0.1778 0.2667-0.4826 0.6604-0.2921 0.3937-0.6477 0.762-0.3429 0.3683-0.7239 0.635-0.3683 0.254-0.7112 0.254-0.6223 0-0.8382-0.381t-0.1651-0.9652 0.3048-1.2827q0.2667-0.7112 0.5969-1.3462 0.3302-0.6477 0.6731-1.143 0.3556-0.4953 0.5842-0.6731 0.1397-0.0508 0.3302-0.0762t0.3556 0.0127q0.1778 0.0381 0.2921 0.1397 0.127 0.0889 0.127 0.254 0 0.0508-0.2032 0.3937-0.2032 0.3302-0.4826 0.8128-0.2794 0.4699-0.5842 1.016-0.3048 0.5334-0.4953 0.9906t-0.2159 0.762 0.2413 0.3048 0.5334-0.1651q0.2667-0.1778 0.4953-0.4064 0.2413-0.2286 0.4191-0.4572t0.254-0.3429q0.0635-0.0889 0.1651-0.0889zm-0.0254-5.1054q0.2667 0 0.4826 0.0889 0.2286 0.0762 0.3556 0.1905 0.127 0.1016 0.127 0.2159 0 0.1016-0.1778 0.1524-0.1778 0.0381-0.2921 0.1778-0.1016 0.1397-0.1905 0.2921t-0.1651 0.2794q-0.0762 0.1143-0.1905 0.1143t-0.2667 0q-0.1397-0.0127-0.2794-0.0508-0.127-0.0508-0.2159-0.1524t-0.0889-0.2794 0.0889-0.3556q0.1016-0.1905 0.2286-0.3302 0.1397-0.1524 0.2921-0.2413t0.2794-0.0889zm2.336797 4.6355q0.1016 0.1651 0.1905 0.3302 0.1016 0.1524 0.1778 0.3302 0.1016 0.2286 0.1524 0.4953t0.0381 0.5207q-0.0127 0.2413-0.0889 0.4699-0.0762 0.2159-0.2413 0.3937-0.1905 0.2159-0.4572 0.3175t-0.5461 0.127q-0.5588 0.0635-1.0795-0.1143-0.1905-0.0635-0.3683-0.1651-0.1651-0.1143-0.2921-0.2794-0.1778-0.2286-0.2159-0.5588-0.0508-0.3302 0.0254-0.6858 0.0635-0.3683 0.254-0.635 0.0381-0.0635 0.1016-0.127 0.0762-0.0762 0.1524-0.0508 0.0889 0.0254 0.1016 0.1524t0.0127 0.1905q0 0.2286 0.0889 0.4445t0.3302 0.2921q0.254 0.0889 0.5207-0.0127 0.2794-0.1016 0.4572-0.2794 0.0889-0.0889 0.1397-0.2032 0.0635-0.1143 0.0508-0.2413-0.0127-0.1016-0.0762-0.1905-0.0508-0.0889-0.1143-0.1651-0.1397-0.1397-0.2794-0.2667t-0.2794-0.2667q-0.3683-0.4064-0.4445-0.9398-0.0635-0.5334 0.2159-1.0033 0.2286-0.3937 0.6731-0.6731t0.9017-0.2794q0.2921 0 0.4826 0.1016 0.2032 0.0889 0.3175 0.2286 0.1143 0.127 0.1524 0.2667 0.0508 0.1397 0.0508 0.2286 0 0.0254-0.0889 0.0381-0.0889 0-0.2032 0.0127-0.1016 0-0.2032 0t-0.1143 0q-0.2159 0.0254-0.4318 0.1016-0.2159 0.0635-0.3302 0.254t-0.1651 0.4191q-0.0508 0.2159-0.0254 0.4318 0.0254 0.254 0.1397 0.4953 0.1143 0.2286 0.254 0.4445zm5.905488-3.8735q0.0889-0.0254 0.0889 0.0762-0.0254 0.3175-0.1143 0.4572-0.0889 0.127-0.1397 0.1524-0.0127 0.0127-0.0381 0.0127-0.4064 0.0127-0.8509 0.0127t-0.889 0q-0.3175 0.5588-0.6477 1.1684-0.3175 0.5969-0.6096 1.1684-0.2794 0.5588-0.508 1.0668t-0.3556 0.889-0.127 0.6096q0 0.2159 0.1651 0.2159 0.2667 0 0.5207-0.1651t0.4699-0.3937 0.381-0.4572 0.2413-0.3556q0.0635-0.1016 0.1778-0.1016 0.127 0 0.1778 0.1143 0.0635 0.1016 0 0.2032-0.1651 0.2667-0.4445 0.6731-0.2794 0.3937-0.6223 0.762t-0.7112 0.635-0.7112 0.2667q-0.4699 0-0.635-0.2667-0.1778-0.2794-0.127-0.7493 0.0381-0.4699 0.2667-1.0922 0.2159-0.6223 0.5334-1.3208 0.3302-0.7112 0.7112-1.4478 0.3937-0.7366 0.762-1.4478-0.5842-0.0254-1.016-0.0508-0.4318-0.0381-0.5969-0.1016-0.0635-0.0254-0.0635-0.0889l0.0508-0.5969q0-0.0508 0.0381-0.0762t0.0762 0q0.2159 0.0889 0.7112 0.1524 0.508 0.0508 1.1176 0.0762 0.4318-0.8382 0.7239-1.4859 0.2921-0.6604 0.3175-1.016 0.1397-0.0508 0.3429-0.0508t0.3937 0.0635 0.3175 0.1905q0.1397 0.1143 0.1397 0.2794 0 0.0254-0.0889 0.1905t-0.2413 0.4445q-0.1524 0.2667-0.3556 0.635-0.2032 0.3556-0.4318 0.7747 0.5461 0.0127 0.9652 0 0.4318-0.0254 0.6096-0.0635zm3.759193 4.5085q0.1651 0.0127 0.2413 0.1524t-0.0127 0.2794q-0.0762 0.127-0.1778 0.2286t-0.2159 0.2032q-0.3683 0.3302-0.8001 0.5842-0.4318 0.2413-0.8763 0.4572-0.2032 0.1016-0.4064 0.2032-0.1905 0.0889-0.3937 0.1905-0.4064 0.9652-0.8636 1.8669-0.4445 0.9017-0.9398 1.6002-0.4826 0.6985-1.0287 1.1176-0.5334 0.4191-1.1176 0.4191-0.254 0-0.4953-0.0254-0.254-0.0254-0.4826-0.1143-0.4318-0.1651-0.635-0.5715-0.2032-0.3937-0.2159-0.8382-0.0127-0.2413 0.0381-0.4699 0.0381-0.2286 0.1397-0.4445 0.1143-0.2413 0.2921-0.4318t0.3937-0.3556q0.5715-0.4445 1.2192-0.762 0.635-0.3175 1.2954-0.5969 0.3175-0.1397 0.6223-0.254 0.3175-0.127 0.635-0.254l0.2667-0.4953q0.254-0.5207 0.4826-1.0287 0.2413-0.5207 0.4699-1.0541 0.127-0.2921 0.2413-0.5969 0.127-0.3048 0.254-0.6096-0.2413 0.3683-0.5715 0.8128-0.3302 0.4318-0.6985 0.8763-0.3556 0.4445-0.7366 0.8636-0.3683 0.4191-0.7112 0.7493-0.3302 0.3302-0.6096 0.5334t-0.4445 0.2159q-0.0381 0.0254-0.127 0.0254-0.0889-0.0127-0.2032-0.0381-0.2667-0.0508-0.4191-0.2667-0.1651-0.2286-0.1016-0.4953 0.2286-1.0922 0.5969-1.9685 0.3683-0.889 0.7112-1.5367 0.3556-0.6604 0.6096-1.0922t0.254-0.6223q0.1397-0.0508 0.3048-0.0635 0.1651-0.0254 0.3048 0.0254 0.1524 0.0381 0.2413 0.1397 0.1016 0.1016 0.1016 0.2667 0 0.0381-0.1143 0.2667-0.1143 0.2159-0.3048 0.5715-0.1778 0.3429-0.4191 0.7874-0.2286 0.4445-0.4572 0.9398t-0.4318 1.0033-0.3302 0.9779q0.508-0.2032 1.0414-0.6985 0.5334-0.508 1.0795-1.1811 0.5588-0.6731 1.1049-1.4478 0.5588-0.7747 1.1049-1.524l0.0381-0.0381v-0.0381 0.0127q0.127-0.1016 0.2794-0.0508l0.5461 0.1778q0.1397 0.0508 0.1778 0.1905 0.0381 0.127-0.0381 0.2413-0.2286 0.3302-0.4699 0.8255t-0.4953 1.1049q-0.254 0.5969-0.5334 1.2827-0.2667 0.6858-0.5588 1.3843 0.2921-0.127 0.5842-0.254 0.2921-0.1397 0.5715-0.3048 0.254-0.1524 0.5207-0.3556 0.2794-0.2159 0.381-0.508 0.0635-0.2032 0.2794-0.1778zm-4.5339 3.5941q0.0889-0.1397 0.1651-0.2921 0.0762-0.1397 0.1524-0.2794-0.2921 0.1397-0.5842 0.2667-0.2921 0.1397-0.5842 0.2921-0.3302 0.1778-0.6604 0.3683t-0.5842 0.4826q-0.1143 0.1397-0.1905 0.2921t-0.0635 0.3302q0 0.1524 0.1016 0.2794 0.1143 0.127 0.3048 0.127 0.1778 0 0.3302-0.0762 0.2667-0.1143 0.4699-0.3302 0.2159-0.2032 0.4064-0.4191 0.2159-0.2413 0.381-0.508 0.1778-0.254 0.3429-0.5207zm15.5956-5.1689q0.4064 0.1651 0.6096 0.4318t0.2032 0.4445q0 0.127-0.0635 0.2413t-0.1397 0.2159q-0.0889 0.1143-0.1905 0.2032-0.0635-0.0635-0.1524-0.1143-0.1524-0.0889-0.4953-0.2159-0.1905 1.143-0.2286 2.3495t0.1524 2.4638q-0.6858-0.1143-1.0414-0.5588-0.3556-0.4318-0.4699-1.0922-0.1016-0.6604-0.0127-1.4986t0.2794-1.7653q-0.4445 0.0508-1.016 0.1905-0.5715 0.127-1.1557 0.2413-0.4191 0.508-0.8128 0.9525-0.381 0.4445-0.7112 0.7874-0.3302 0.3302-0.5969 0.5588-0.2667 0.2159-0.4572 0.2794-0.4572 0.1651-0.7112 0.0762-0.254-0.0762-0.381-0.2413-0.1397-0.1905-0.1905-0.4826 0.3683 0 1.0033-0.4953 0.6477-0.4953 1.4351-1.2827-0.2286-0.0127-0.4191-0.0635-0.1778-0.0508-0.2921-0.1651-0.2159-0.2159-0.2921-0.4191t-0.0762-0.3683q0-0.1778 0.0635-0.3429 0.2667 0.2667 0.8509 0.2667 0.5969-0.0127 1.3208-0.1524 0.5969-0.6731 1.2065-1.4097 0.6096-0.7493 1.1684-1.4732t1.0414-1.3843q0.4826-0.6731 0.8382-1.2192 0.3683-0.5461 0.5715-0.9144 0.2032-0.381 0.2032-0.5207 0.2159 0 0.4191 0.0127t0.3556 0.0381q0.1778 0.0254 0.3302 0.0381l0.1524 0.4318q-0.4318 0.762-0.8509 1.6891-0.3683 0.8001-0.762 1.8923-0.3937 1.0795-0.6858 2.3876zm-2.6416 0.1524q0.3683-0.0762 0.6985-0.1397 0.3429-0.0635 0.6477-0.1016 0.1397-0.5715 0.2794-1.1303 0.1397-0.5715 0.2794-1.1303-0.4572 0.6223-0.9398 1.2573-0.4699 0.635-0.9525 1.2573zm8.928102 1.2573q0.1651-0.1524 0.2921-0.127 0.1397 0.0127 0.254 0.127 0.0127 0-0.1651 0.2032-0.1651 0.2032-0.4826 0.508t-0.762 0.6604q-0.4318 0.3556-0.9652 0.6604t-1.1303 0.508q-0.5842 0.2032-1.2065 0.2032-0.5207 0-0.7874-0.2667t-0.3302-0.6985q-0.0762-0.4445 0.0508-0.9906 0.1143-0.5588 0.3683-1.1303 0.254-0.5842 0.6223-1.1303 0.381-0.5588 0.8255-0.9906 0.4572-0.4318 0.9652-0.6985 0.5207-0.2667 1.0414-0.2667 0.4318 0 0.7493 0.2667 0.3302 0.254 0.4699 0.6477t0.0508 0.8509q-0.0889 0.4445-0.4699 0.8255-0.2921 0.2921-0.5969 0.3048-0.2921 0-0.508-0.1143t-0.3048-0.254q-0.0762-0.1397 0.0635-0.1397t0.3048-0.1651q0.1651-0.1778 0.2667-0.381 0.1016-0.2159 0.0889-0.381-0.0127-0.1778-0.2286-0.1778-0.3556 0-0.7239 0.2667t-0.6858 0.6604q-0.3048 0.3937-0.5207 0.8636-0.2159 0.4572-0.2921 0.8509-0.0635 0.3937 0.0381 0.6604 0.1143 0.2667 0.4699 0.2667 0.7747 0 1.3716-0.2159 0.6096-0.2286 1.016-0.4953 0.4826-0.3175 0.8382-0.7239zm4.178309-3.0353q0.0762 0 0.1778 0.0381 0.1143 0.0381 0.2032 0.1143 0.1016 0.0635 0.1651 0.1524t0.0635 0.1905q0 0.1397-0.203199 0.4445-0.2032 0.2921-0.4445 0.7239-0.2286 0.4191-0.4318 0.9525t-0.2032 1.143q-0.0635 0-0.2159-0.0127-0.1397-0.0127-0.2921-0.0635-0.1524-0.0635-0.2667-0.1905t-0.1143-0.3429 0.2032-0.7112q0.2159-0.4953 0.4826-1.0287-0.9017 0.4572-1.5748 1.4859t-1.143 2.4384v-0.0381q-0.0127 0.0508-0.127 0.0508-0.1016-0.0127-0.2413-0.0381-0.2667-0.0508-0.4191-0.2667-0.1651-0.2286-0.1016-0.4953 0.2286-1.0922 0.5715-1.9177t0.6604-1.4097 0.5334-0.9525q0.2286-0.381 0.2286-0.5715 0.1397-0.0508 0.3048-0.0635 0.1651-0.0254 0.3048 0.0254 0.1524 0.0381 0.2413 0.1397 0.1016 0.1016 0.1016 0.2667 0 0.0381-0.0889 0.2159-0.0889 0.1651-0.2413 0.4445t-0.3429 0.6477q-0.1905 0.3556-0.381 0.762 0.3937-0.4191 0.762-0.8001t0.6985-0.6604q0.3429-0.2921 0.635-0.4699t0.5207-0.2032zm5.016503 3.0099q0.1651-0.1016 0.3429-0.1143 0.1778-0.0254 0.2286 0.1905 0.0127-0.0254-0.1651 0.1651-0.1651 0.1905-0.4826 0.4826t-0.762 0.635q-0.4318 0.3429-0.9652 0.6477-0.5207 0.2921-1.1176 0.4953-0.5842 0.1905-1.2065 0.1905-0.6858 0-0.9398-0.4445-0.2667-0.4572-0.2032-1.1303 0.0635-0.6858 0.4064-1.4732 0.3429-0.8001 0.8636-1.4732 0.5334-0.6858 1.1938-1.1303 0.6731-0.4572 1.3716-0.4572 0.6096 0 0.9017 0.2286 0.3048 0.2159 0.3683 0.5842 0.0635 0.3556-0.0762 0.8001-0.1397 0.4318-0.4191 0.8636t-0.6604 0.8128q-0.381 0.3683-0.8001 0.5969t-0.8382 0.2667q-0.4064 0.0254-0.762-0.2413-0.0635 0.381 0.0508 0.635 0.127 0.254 0.4699 0.254 0.7747 0 1.3716-0.2159t1.0033-0.4699q0.4826-0.3048 0.8255-0.6858zm-1.5748-2.1336q-0.2667 0-0.5334 0.1397-0.254 0.1397-0.4953 0.381-0.2413 0.2286-0.4572 0.5334t-0.3683 0.6223q0.3048 0.1905 0.6096 0.1397t0.5588-0.2286q0.2667-0.1905 0.4699-0.4572 0.2159-0.2794 0.3175-0.5207 0.1016-0.254 0.0889-0.4318t-0.1778-0.1778zm4.089404 1.6891q0.1016 0.1651 0.1905 0.3302 0.1016 0.1524 0.1778 0.3302 0.1016 0.2286 0.1524 0.4953t0.0381 0.5207q-0.0127 0.2413-0.0889 0.4699-0.0762 0.2159-0.2413 0.3937-0.1905 0.2159-0.4572 0.3175t-0.5461 0.127q-0.5588 0.0635-1.0795-0.1143-0.1905-0.0635-0.3683-0.1651-0.1651-0.1143-0.2921-0.2794-0.1778-0.2286-0.2159-0.5588-0.0508-0.3302 0.0254-0.6858 0.0635-0.3683 0.254-0.635 0.0381-0.0635 0.1016-0.127 0.0762-0.0762 0.1524-0.0508 0.0889 0.0254 0.1016 0.1524t0.0127 0.1905q0 0.2286 0.0889 0.4445t0.3302 0.2921q0.254 0.0889 0.5207-0.0127 0.2794-0.1016 0.4572-0.2794 0.0889-0.0889 0.1397-0.2032 0.0635-0.1143 0.0508-0.2413-0.0127-0.1016-0.0762-0.1905-0.0508-0.0889-0.1143-0.1651-0.1397-0.1397-0.2794-0.2667t-0.2794-0.2667q-0.3683-0.4064-0.4445-0.9398-0.0635-0.5334 0.2159-1.0033 0.2286-0.3937 0.6731-0.6731t0.9017-0.2794q0.2921 0 0.4826 0.1016 0.2032 0.0889 0.3175 0.2286 0.1143 0.127 0.1524 0.2667 0.0508 0.1397 0.0508 0.2286 0 0.0254-0.0889 0.0381-0.0889 0-0.2032 0.0127-0.1016 0-0.2032 0t-0.1143 0q-0.2159 0.0254-0.4318 0.1016-0.2159 0.0635-0.3302 0.254t-0.1651 0.4191q-0.0508 0.2159-0.0254 0.4318 0.0254 0.254 0.1397 0.4953 0.1143 0.2286 0.254 0.4445z" filter="url(#filter)" stroke-width=".267695" aria-label="Misty Acres"/>
</svg>
